<svg xmlns="http://www.w3.org/2000/svg" width="63" height="24" viewBox="0 0 63 24"><title>Fill 1</title><path d="M3.22 20.25h1.39c.65 0 1.17-.09 1.53-.28.37-.19.65-.45.84-.79.19-.34.31-.74.35-1.2.04-.46.06-.97.06-1.51 0-.57-.03-1.07-.09-1.49-.07-.42-.2-.77-.4-1.06-.2-.28-.48-.49-.84-.64-.35-.15-.83-.22-1.42-.22H3.22zm0-10.03h1.46c1.07 0 1.79-.27 2.16-.81.37-.54.55-1.32.55-2.35 0-1.01-.2-1.77-.61-2.27-.41-.51-1.16-.76-2.23-.76H3.22zM0 1h4.71c1.03 0 1.91.16 2.63.47.73.32 1.33.74 1.79 1.27.46.52.79 1.13.99 1.81.2.68.3 1.4.3 2.13v.82c0 .61-.04 1.13-.14 1.55-.09.42-.23.79-.42 1.1-.19.32-.43.6-.7.84-.27.24-.59.47-.95.68.76.36 1.32.89 1.68 1.59.35.71.53 1.65.53 2.83v1.26c0 1.98-.48 3.49-1.43 4.54-.96 1.06-2.49 1.58-4.6 1.58H0zm24.42 17.42c0 .74-.13 1.42-.41 2.05-.27.64-.64 1.19-1.12 1.66-.47.47-1.02.85-1.66 1.12-.63.27-1.3.41-2.02.41a5.1 5.1 0 0 1-2.02-.41 5.4 5.4 0 0 1-1.66-1.12c-.47-.47-.85-1.02-1.12-1.66a5.14 5.14 0 0 1-.41-2.05V1h3.22v17.11c0 .8.19 1.39.57 1.76.38.38.85.57 1.42.57s1.04-.19 1.42-.57c.38-.37.57-.96.57-1.76V1h3.22zM27 1h3.22v19.25h6.38v3.22H27zm13 0h3.22v19.25h6.38v3.22H40zm15.22 16.36c0 .78.22 1.35.65 1.72.43.37.94.55 1.53.55.59 0 1.1-.18 1.53-.55.43-.37.65-.94.65-1.72V5.49c0-.78-.22-1.35-.65-1.72-.43-.37-.94-.55-1.53-.55-.59 0-1.1.18-1.53.55-.43.37-.65.94-.65 1.72zM52 5.49c0-.9.16-1.7.47-2.4.32-.69.74-1.26 1.25-1.72.52-.45 1.1-.79 1.74-1.02A5.72 5.72 0 0 1 57.4 0c.65 0 1.3.12 1.94.35.65.23 1.23.57 1.74 1.02.52.46.93 1.03 1.25 1.72.32.7.47 1.5.47 2.4v11.87c0 .93-.15 1.73-.47 2.41-.32.69-.73 1.26-1.25 1.71-.51.45-1.09.79-1.74 1.02-.64.24-1.29.35-1.94.35-.65 0-1.3-.11-1.94-.35a5.46 5.46 0 0 1-1.74-1.02 5.12 5.12 0 0 1-1.25-1.71c-.31-.68-.47-1.48-.47-2.41z"/></svg>