<svg width="34" height="25" viewBox="0 0 34 25" xmlns="http://www.w3.org/2000/svg"><g fill-rule="evenodd"><path d="M20.332 23.532c0 .248-.27.457-.59.457H1.42c-.32 0-.592-.21-.592-.457v-1.68c0-1.032.65-2.254 1.892-2.61l3.127-.46c.463 1.977 2.422 3.421 4.733 3.421 2.311 0 4.27-1.444 4.734-3.42l3.127.46c1.241.355 1.89 1.577 1.89 2.608v1.681zM5.69 11.093a.393.393 0 0 0 0-.074V8.778c0-.733.607-1.33 1.353-1.33h7.514a.41.41 0 0 0 .414-.406.41.41 0 0 0-.414-.407H7.044c-1.203 0-2.182.961-2.182 2.143v1.226a3.006 3.006 0 0 1-.497-1.66v-2.17c0-1.211 1.004-2.197 2.237-2.197a.41.41 0 0 0 .415-.407c0-.493.409-.894.911-.894h5.747c1.72 0 3.12 1.374 3.12 3.064v2.604c0 .599-.175 1.172-.496 1.66v-1.66a.41.41 0 0 0-.415-.407.41.41 0 0 0-.414.407v3.038c0 2.886-2.193 5.234-4.89 5.234-2.696 0-4.889-2.348-4.889-5.234v-.289zm4.89 6.337a5.467 5.467 0 0 0 3.135-.993c.04.743.196 1.566.812 2.063-.333 1.662-1.986 2.89-3.948 2.89-1.961 0-3.614-1.228-3.947-2.89.616-.497.772-1.32.812-2.063.9.627 1.978.993 3.135.993zm8.06 1.023a.372.372 0 0 0-.051-.01l-3.448-.509c-.558-.354-.61-1.232-.611-2.184a6.201 6.201 0 0 0 1.768-4.368v-.14a3.828 3.828 0 0 0 1.325-2.898V5.74c0-2.138-1.772-3.878-3.95-3.878H7.929c-.825 0-1.517.567-1.696 1.324-1.516.18-2.696 1.451-2.696 2.988v2.17a3.83 3.83 0 0 0 1.326 2.899v.139c0 1.716.68 3.267 1.768 4.368-.001.952-.053 1.83-.611 2.184l-3.448.508a.398.398 0 0 0-.05.01 3.326 3.326 0 0 0-1.866 1.336A3.65 3.65 0 0 0 0 21.851v1.681c0 .7.637 1.271 1.42 1.271h18.32c.784 0 1.42-.57 1.42-1.27V21.85c0-.723-.232-1.456-.654-2.063a3.327 3.327 0 0 0-1.866-1.335z"/><path d="M28.591 6.543l-1.558-1.394V3.39h1.558v3.154zm4.719 4.566l-3.94-3.926V3.321c0-.564-.583-.698-1.154-.698H27.18c-.575 0-.926.137-.926.698v.807L22.411.413a.6.6 0 0 0-.392-.149.562.562 0 0 0-.38.149L17.97 4.008c.052.355.117.777.185 1.254l3.768-3.77 8.226 8.147V21.74h-5.452v-9.257c0-.56-.059-.684-.63-.684H19.92c-.576 0-.675.125-.675.684v4.618c0 .18 0 .304.78.405v-4.942h3.894v9.176h-1.11c.029 0 .039.765.033.765h7.452c.57 0 .635-.56.635-1.12V10.394l1.416 1.436c.096.095.312.148.453.148.287 0 .594-.229.594-.51-.004-.14.01-.27-.081-.36z"/></g></svg>