<svg width="80" height="99" viewBox="0 0 80 99" xmlns="http://www.w3.org/2000/svg"><title>Page 1</title><g fill="#77BC1F" fill-rule="evenodd"><path d="M55.896 74.375h19.665V57.763H55.896v16.612zm14.582 16.946c0 2.326-1.885 4.217-4.201 4.217H3.45V36.604h62.826c2.316 0 4.201 1.89 4.201 4.217v13.484h-16.31c-.953 0-1.723.775-1.723 1.729v20.074c0 .954.77 1.73 1.724 1.73h16.31V91.32zM26.917 12.012c1.753 1 3.72 1.521 5.777 1.521 3.076 0 5.955-1.178 8.133-3.277l15.128 11.791a11.715 11.715 0 0 0-1.516 5.795c0 1.871.437 3.676 1.253 5.3H10.548l16.369-21.13zM33 4.158l5.06 3.943a8.234 8.234 0 0 1-5.366 1.97 8.21 8.21 0 0 1-3.629-.831L33 4.158zm16.398 1.303l3.185 9.574-9.551-7.442 6.366-2.131zm10.522 27.68h-.132a8.296 8.296 0 0 1-1.898-5.299 8.26 8.26 0 0 1 .832-3.643l5.064 3.95-3.866 4.993zm17.365 21.164H73.93V40.82c0-4.234-3.434-7.68-7.652-7.68H64.29l3.28-4.236a1.736 1.736 0 0 0-.302-2.43l-9.775-7.612-5.366-16.137a1.72 1.72 0 0 0-2.181-1.096l-10.19 3.41L33.754.362a1.724 1.724 0 0 0-2.422.307L6.179 33.142H1.724A1.73 1.73 0 0 0 0 34.874v62.397C0 98.225.773 99 1.724 99h64.553c4.218 0 7.652-3.445 7.652-7.68V77.838h3.356c.951 0 1.724-.775 1.724-1.73V56.035c0-.954-.773-1.73-1.724-1.73z"/><path d="M65.727 64.34a1.731 1.731 0 1 1 0 3.462 1.731 1.731 0 0 1 0-3.462m0 6.92c2.852 0 5.175-2.326 5.175-5.19 0-2.861-2.323-5.191-5.175-5.191-2.853 0-5.176 2.33-5.176 5.19 0 2.865 2.323 5.192 5.176 5.192"/></g></svg>