<svg xmlns="http://www.w3.org/2000/svg" width="51" height="23" viewBox="0 0 51 23"><title>Fill 12</title><path d="M11.06 6.66H7.83v-.73c0-.73-.17-1.37-.52-1.91-.34-.53-.93-.8-1.75-.8-.44 0-.81.08-1.09.25-.28.17-.51.39-.66.65-.16.26-.27.57-.34.91-.06.35-.09.71-.09 1.09 0 .44.02.82.05 1.12.03.31.11.57.23.79.13.22.31.42.56.59.24.17.57.33.99.5l2.47.98c.71.27 1.29.59 1.73.96.45.37.79.8 1.03 1.3.24.49.41 1.06.49 1.7.08.64.13 1.37.13 2.19 0 .95-.1 1.83-.29 2.64-.19.81-.5 1.5-.93 2.08-.43.58-1.01 1.04-1.72 1.38-.72.33-1.59.5-2.62.5-.78 0-1.51-.14-2.18-.41-.68-.27-1.26-.65-1.74-1.12-.49-.47-.87-1.04-1.15-1.69-.29-.65-.43-1.36-.43-2.11v-1.2h3.22v1.01c0 .59.18 1.12.52 1.59.35.47.94.71 1.76.71.54 0 .97-.08 1.28-.24.3-.15.53-.37.69-.66.16-.28.26-.63.3-1.06.04-.42.06-.88.06-1.38 0-.59-.02-1.08-.06-1.46-.04-.37-.13-.68-.27-.91-.14-.23-.32-.42-.57-.57-.24-.15-.56-.3-.96-.47l-2.31-.95c-1.39-.57-2.32-1.32-2.79-2.26C.39 8.74.16 7.56.16 6.15c0-.84.11-1.64.35-2.39.23-.76.57-1.41 1.02-1.96.45-.55 1.03-.98 1.72-1.31C3.95.16 4.76 0 5.69 0c.8 0 1.53.15 2.19.44.66.3 1.23.69 1.71 1.17.47.48.83 1.03 1.09 1.63.25.59.38 1.21.38 1.84zm8.32-.19h-.06l-1.58 8.14h3.22zM18.02 0h2.69l5.02 22.47h-3.22l-.95-4.83h-4.39l-.95 4.83H13zM28 0h9.6v3.03h-6.38v6.82h5.56v3.03h-5.56v9.59H28zm13 0h9.6v3.03h-6.38v6.6h5.56v3.03h-5.56v6.59h6.38v3.22H41z" fill="#77bc1f"/></svg>