<svg xmlns="http://www.w3.org/2000/svg" width="53" height="45" viewBox="0 0 53 45"><title>Page 1</title><path d="M5.04 11.03c0-2.72 2.21-4.93 4.93-4.93 1.71 0 3.31.9 4.2 2.35l-1.05 4.59h-.25c-.43 0-.8.32-.86.75l-.25 1.84c-.57.22-1.17.34-1.79.34-2.72 0-4.93-2.22-4.93-4.94zM18.18 32.2h-4.62v-2.41c.46-.64.69-1.35.69-2.09 0-2.18-.92-3.37-1.96-4.21v-3.75h7.16v3.75c-1.04.84-1.96 2.03-1.96 4.21 0 .74.23 1.45.69 2.09zM5.71 30.24h6.12V42.9H5.71zM21.28 42.9h-1.37V30.24h6.12v7.91h-3.88a.87.87 0 0 0-.87.87zm9.48-16.47h8.17v8.31h-8.17zm-17.2 7.5h4.62v8.97h-4.62zm18.39-19.74h5.79v6.02h-5.79zM33.7 42.9H23.02v-3.02H33.7zM5.54 25.67c.23-.34.52-.62.86-.89.27.22.68.5 1.25.78 1.31.65 2.92 1.04 4.78 1.18.06.28.09.6.09.96 0 .25-.06.51-.17.75-3.23-.51-5.81-2.1-6.81-2.78zm33.39-3.73v2.76h-.73v-.52c0-.48-.38-.87-.86-.87a.87.87 0 0 0-.87.87v.52h-.81v-.52c0-.48-.38-.87-.86-.87a.87.87 0 0 0-.87.87v.52h-.81v-.52c0-.48-.38-.87-.86-.87a.87.87 0 0 0-.87.87v.52h-.63v-2.76zm1.16 20.96h-4.66v-3.02h4.66zm-9.33-6.43h8.17v1.68h-8.17zm6.06-26.66v2.65h-1.11v-.52a.86.86 0 0 0-.86-.86c-.48 0-.87.38-.87.86v.52h-1.1V9.81zM15.87 8.79l.97 4.25H14.9zm7.84 18.91c0 .28-.02.55-.06.81h-1.37c-.03-.26-.05-.53-.05-.81 0-2.12.33-2.91.74-3.69.4.78.74 1.57.74 3.69zm-2.85-3.1c-.22.72-.36 1.67-.36 3.1 0 .27.01.54.04.81h-1.12c-.13-.26-.2-.54-.2-.81 0-1.68.65-2.41 1.64-3.1zm5.66 3.91H25.4c.02-.27.04-.54.04-.81 0-1.43-.15-2.38-.36-3.1.98.69 1.64 1.42 1.64 3.1 0 .27-.07.55-.2.81zm-16.33-4.38c.38.25.74.48 1.05.73-1.65-.27-2.7-.75-3.3-1.12.28-.19.56-.4.83-.64.46.4.94.72 1.42 1.03zM18.56 18h-5.38l.11-.75h5.16zM34.85 5.87l.87 2.21h-1.75zm-16.74 8.9l.11.75h-4.7l.11-.75zM16.74 4.9a.87.87 0 0 1-1.74 0c0-.47.39-.86.87-.86s.87.39.87.86zM5.03 27.41c.49.32 1.15.71 1.94 1.1H5.22c-.13-.26-.2-.54-.2-.81 0-.1 0-.2.01-.29zm47.42.69v-1.84c0-.48-.38-.87-.86-.87a.87.87 0 0 0-.87.87v.98h-.62v-.98c0-.48-.39-.87-.86-.87a.87.87 0 0 0-.87.87v.98h-.62v-.98c0-.48-.39-.87-.86-.87a.87.87 0 0 0-.87.87v.98h-.62v-.98c0-.48-.39-.87-.86-.87a.87.87 0 0 0-.87.87v.98h-.62v-.98a.87.87 0 0 0-.87-.87c-.47 0-.86.39-.86.87v.98h-.66v-6.17a.86.86 0 0 0-.86-.86h-.33v-6.88c0-.48-.38-.87-.86-.87h-.06V8.94c0-.47-.39-.86-.87-.86h-.1l-1.87-4.74V1.2c0-.48-.38-.87-.86-.87a.87.87 0 0 0-.87.87v2.14l-1.87 4.74h-.1c-.48 0-.87.39-.87.86v3.52h-.05a.87.87 0 0 0-.87.87v6.88h-.33c-.47 0-.86.39-.86.86v17.08h-1.27v-8.36c.45-.64.69-1.35.69-2.09 0-2.98-1.73-4.11-3.12-5.02-.55-.36-1.07-.7-1.5-1.14v-1.52a.86.86 0 0 0-.86-.86c-.48 0-.87.39-.87.86v1.52c-.27.28-.58.52-.92.76v-3.43a.87.87 0 0 0-.87-.87l-.58-4.21a.871.871 0 0 0-.86-.75h-.25L17.26 7.1c.72-.46 1.21-1.27 1.21-2.19 0-1.13-.73-2.1-1.73-2.45V.87a.87.87 0 0 0-.87-.87c-.48 0-.86.39-.86.87v1.59a2.6 2.6 0 0 0-1.74 2.45c0 .12.01.24.03.35-1-.57-2.14-.89-3.33-.89-3.67 0-6.66 2.99-6.66 6.66 0 3.68 2.99 6.67 6.66 6.67.52 0 1.04-.06 1.53-.18l-.06.48h-.01a.87.87 0 0 0-.87.87v3.43c-.34-.24-.65-.48-.92-.76v-1.52c0-.47-.39-.86-.87-.86a.86.86 0 0 0-.86.86v1.52c-.42.44-.95.78-1.5 1.14-1.39.91-3.12 2.04-3.12 5.02 0 .74.24 1.45.69 2.09V42.9H.87c-.48 0-.87.39-.87.86 0 .48.39.87.87.87h50.72c.48 0 .86-.39.86-.87a.86.86 0 0 0-.86-.86h-9.77v-3.88a.87.87 0 0 0-.87-.87h-.29v-9.18h10.93c.48 0 .86-.39.86-.87z" fill="#77bc1f"/></svg>