<svg xmlns="http://www.w3.org/2000/svg" width="34" height="42" viewBox="0 0 34 42"><title>Fill 1</title><path d="M9.18 4.25c2.81-2.52 6.01-2.89 7.66-2.89 1.66 0 4.85.37 7.67 2.89 3.71 3.32 5.6 9.2 5.6 17.48 0 .76-1.19 1.55-2.77 2.22.8-1.16 1.07-2.45 1.16-3.15.47-.23.78-.71.78-1.25v-3.6c0-.78-.64-1.41-1.42-1.41h-1.31l-.15-.03c-5.96-.28-14.95-2.5-17.58-4.02a.727.727 0 0 0-.56-.06.73.73 0 0 0-.42.37 14.14 14.14 0 0 0-1.07 3.71h-.94c-.79 0-1.42.63-1.42 1.41v3.63c0 .77.63 1.4 1.42 1.4h1.43c.47 1.5 1.17 2.86 2.06 4.01-2.79-.77-5.74-2.03-5.74-3.23 0-8.28 1.89-14.16 5.6-17.48zm-.36 7.78c1.56.72 4.14 1.54 7.16 2.25 3.45.81 6.94 1.37 9.71 1.56.01.32.01.67.01.81 0 3.28-1.17 6.22-3.03 8.23-.7 0-1.47-.11-2.31-.32.07-.21.11-.43.11-.66 0-1.17-.97-2.13-2.16-2.13-1.19 0-2.15.96-2.15 2.13 0 1.18.96 2.13 2.15 2.13.42 0 .81-.11 1.14-.31.62.18 1.22.32 1.8.41-1.3.92-2.8 1.45-4.41 1.45-4.88 0-8.85-4.91-8.85-10.93a13 13 0 0 1 .83-4.62zm.39 19.9l2.95 4.08c.23.31.58.52.96.58.07.01.13.01.2.01.32 0 .64-.11.89-.31l1.95-1.54v3.67c0 .37.3.68.68.68.38 0 .69-.31.69-.68v-3.67l1.95 1.54c.25.2.57.31.89.31.07 0 .13 0 .19-.01.39-.06.74-.27.97-.58l2.95-4.08 5.02 1.24c.14.04.29.08.43.14l-2.65 3.14c-.54.64-.84 1.45-.84 2.29v1.9H7.25v-1.9c0-.84-.3-1.65-.84-2.29l-2.65-3.14c.14-.06.29-.1.43-.14zm11.35-3.83v1.19l-3.72 3.15-3.71-3.15V28.1c1.15.54 2.4.84 3.71.84s2.57-.3 3.72-.84zm10.97 12.54h-3.72v-1.9c0-.52.19-1.02.52-1.42l2.78-3.29c.75.68 1.2 1.65 1.2 2.71v3.13c0 .42-.35.77-.78.77zm-30.15-3.9c0-1.06.45-2.03 1.2-2.71l2.77 3.29c.34.4.52.9.52 1.42v1.9H2.16c-.43 0-.78-.35-.78-.77zm21.91-5.51l-2.88 3.99c-.01 0-.01.02-.03.02-.02 0-.04-.01-.04-.01l-2.42-1.91 4-3.38c.01-.02.04-.02.06 0zm-11.52-1.29l3.99 3.38-2.41 1.91c-.01 0-.02.01-.04.01s-.02-.02-.03-.02l-2.88-3.99 1.31-1.29c.02-.02.04-.02.06 0zm12.98-5.5c.71-1.04 1.28-2.21 1.68-3.49h.66c-.16.87-.6 2.32-1.84 3.19-.16.11-.32.21-.5.3zM5.83 19.59c-.03 0-.05-.02-.05-.04v-3.63c0-.03.02-.05.05-.05h.8c-.01.26-.02.52-.02.78 0 1.01.1 2 .3 2.94zm22.08-.04c0 .02-.03.04-.05.04h-1.08c.19-.94.3-1.93.3-2.94 0-.13 0-.44-.01-.75h.79c.02 0 .05.02.05.05zM17.53 23.9c0-.42.35-.77.78-.77.43 0 .78.35.78.77 0 .43-.35.77-.78.77-.43 0-.78-.34-.78-.77zm7.01 6.65l-1.59-1.57c-.27-.28-.64-.41-1.01-.41V27.3c.24-.16.47-.34.7-.53.28-.06 2.24-.45 4.23-1.17 3.11-1.12 4.62-2.38 4.62-3.87 0-8.68-2.04-14.9-6.06-18.49C22.28.42 18.7 0 16.84 0c-1.85 0-5.43.42-8.58 3.24C4.24 6.83 2.2 13.05 2.2 21.73c0 1.49 1.51 2.75 4.62 3.87 1.99.72 3.94 1.11 4.23 1.17.23.19.46.37.7.53v1.27c-.37 0-.74.13-1.01.41l-1.59 1.57-5.29 1.3C1.59 32.41 0 34.42 0 36.74v3.13C0 41.04.97 42 2.16 42h29.37c1.19 0 2.16-.96 2.16-2.13v-3.13c0-2.32-1.59-4.33-3.86-4.89z" fill="#fff"/></svg>