<?xml version="1.0" encoding="UTF-8"?>
<svg width="18px" height="20px" viewBox="0 0 18 20" version="1.1" xmlns="http://www.w3.org/2000/svg" xmlns:xlink="http://www.w3.org/1999/xlink">
    <g transform="translate(-1145.000000, -243.000000)">
        <path d="M1151,252 L1149,252 L1149,254 L1151,254 L1151,252 L1151,252 Z M1155,252 L1153,252 L1153,254 L1155,254 L1155,252 L1155,252 Z M1159,252 L1157,252 L1157,254 L1159,254 L1159,252 L1159,252 Z M1161,245 L1160,245 L1160,243 L1158,243 L1158,245 L1150,245 L1150,243 L1148,243 L1148,245 L1147,245 C1145.89,245 1145.01,245.9 1145.01,247 L1145,261 C1145,262.1 1145.89,263 1147,263 L1161,263 C1162.1,263 1163,262.1 1163,261 L1163,247 C1163,245.9 1162.1,245 1161,245 L1161,245 Z M1161,261 L1147,261 L1147,250 L1161,250 L1161,261 L1161,261 Z" id="Shape"></path>
    </g>
</svg>