<svg id="SvgjsSvg1014" xmlns="http://www.w3.org/2000/svg" version="1.1" xmlns:xlink="http://www.w3.org/1999/xlink" xmlns:svgjs="http://svgjs.com/svgjs" width="27" height="27" viewBox="0 0 27 27"><title>Fill 1 Copy 3</title><desc>Created with Avocode.</desc><defs id="SvgjsDefs1015"></defs><path id="SvgjsPath1016" d="M67.31 263.77L61.18 263.77L61.18 252.71999999999997C61.18 252.04999999999998 60.63 251.49999999999997 59.95 251.49999999999997L55.050000000000004 251.49999999999997C54.370000000000005 251.49999999999997 53.82000000000001 252.04999999999998 53.82000000000001 252.71999999999997L53.82000000000001 263.76L47.68000000000001 263.76L47.68000000000001 249.29999999999998L57.50000000000001 239.48L67.31 249.29999999999998ZM55.05 252.72L59.949999999999996 252.72L59.949999999999996 263.77L55.05 263.77ZM63.63 241.68L64.86 241.68L64.86 245.11L63.63 243.89000000000001ZM66.09 246.34L66.09 241.68C66.09 241 65.54 240.46 64.86 240.46L63.64 240.46C62.96 240.46 62.410000000000004 241.01000000000002 62.410000000000004 241.68L62.410000000000004 242.65L57.93000000000001 238.18C57.82000000000001 238.07 57.660000000000004 238 57.50000000000001 238C57.330000000000005 238 57.17000000000001 238.07 57.07000000000001 238.18L44.18000000000001 251.07C44.07000000000001 251.17 44.00000000000001 251.32999999999998 44.00000000000001 251.5C44.00000000000001 251.84 44.27000000000001 252.11 44.620000000000005 252.11C44.78 252.11 44.940000000000005 252.04000000000002 45.050000000000004 251.93L46.46 250.53L46.46 263.77C46.46 264.44 47.01 265 47.68 265L67.32 265C67.99 265 68.53999999999999 264.44 68.53999999999999 263.77L68.53999999999999 250.52999999999997L69.94999999999999 251.92999999999998C70.07 252.04999999999998 70.21999999999998 252.10999999999999 70.38 252.10999999999999C70.72 252.10999999999999 71 251.83999999999997 71 251.49999999999997C70.99 251.32999999999998 70.92 251.16999999999996 70.82 251.06999999999996Z " fill="#77bc1f" fill-opacity="1" transform="matrix(1,0,0,1,-44,-238)"></path></svg>