<?xml version="1.0" encoding="UTF-8"?>
<svg width="34px" height="25px" viewBox="0 0 34 25" version="1.1" xmlns="http://www.w3.org/2000/svg" xmlns:xlink="http://www.w3.org/1999/xlink">
    <g id="Symbols" fill-rule="evenodd">
        <g id="Group-3">
            <g>
                <g transform="translate(0.000000, 1.861871)" id="Fill-1">
                    <path d="M20.3319174,21.6702353 C20.3319174,21.918 20.0616404,22.1275294 19.7415141,22.1275294 L1.41953835,22.1275294 C1.09941201,22.1275294 0.828356126,21.918 0.828356126,21.6702353 L0.828356126,19.9894118 C0.828356126,18.9578235 1.47795557,17.7358235 2.72029504,17.381 L5.84678445,16.9206471 C6.3102277,18.8974118 8.26915168,20.3411765 10.5801368,20.3411765 C12.8911218,20.3411765 14.8508247,18.8974118 15.314268,16.9206471 L18.4407574,17.381 C19.6823179,17.7358235 20.3319174,18.9578235 20.3319174,19.9894118 L20.3319174,21.6702353 L20.3319174,21.6702353 Z M5.69100521,9.23152941 C5.6933419,9.20705882 5.6933419,9.18258824 5.69100521,9.15735294 L5.69100521,6.916 C5.69100521,6.18341176 6.29776536,5.58694118 7.04394793,5.58694118 L14.5579597,5.58694118 C14.7869552,5.58694118 14.9723325,5.40494118 14.9723325,5.18011765 C14.9723325,4.95529412 14.7869552,4.77329412 14.5579597,4.77329412 L7.04394793,4.77329412 C5.84133218,4.77329412 4.86225963,5.73452941 4.86225963,6.916 L4.86225963,8.14182353 C4.54057549,7.65394118 4.36454495,7.08117647 4.36454495,6.48241176 L4.36454495,4.31217647 C4.36454495,3.10088235 5.36854217,2.11517647 6.60231378,2.11517647 C6.83130927,2.11517647 7.01668657,1.93317647 7.01668657,1.70835294 C7.01668657,1.21511765 7.42560708,0.813647059 7.92799514,0.813647059 L13.6746914,0.813647059 C15.3952732,0.813647059 16.7957286,2.18858824 16.7957286,3.87858824 L16.7957286,6.48241176 C16.7957286,7.08117647 16.619698,7.65394118 16.2987928,8.14182353 L16.2987928,6.48241176 C16.2987928,6.25758824 16.1134155,6.07558824 15.88442,6.07558824 C15.6554245,6.07558824 15.4700472,6.25758824 15.4700472,6.48241176 L15.4700472,9.51982353 C15.4700472,12.4058235 13.2766755,14.7542353 10.5801368,14.7542353 C7.88437695,14.7542353 5.69100521,12.4058235 5.69100521,9.51982353 L5.69100521,9.23152941 L5.69100521,9.23152941 Z M10.5801368,15.5678824 C11.7375765,15.5678824 12.81479,15.2023529 13.7159729,14.5752941 C13.7556966,15.3178235 13.9122548,16.1414118 14.5275828,16.6377059 C14.1949941,18.3001765 12.5421763,19.5275294 10.5801368,19.5275294 C8.61887608,19.5275294 6.96605831,18.3001765 6.63346963,16.6377059 C7.24879764,16.1414118 7.40535578,15.3178235 7.44507949,14.5752941 C8.34548351,15.2023529 9.42347588,15.5678824 10.5801368,15.5678824 L10.5801368,15.5678824 Z M18.6401548,16.5910588 C18.623798,16.5864706 18.6066623,16.5826471 18.5895266,16.5803529 L15.1421319,16.0725882 C14.5844422,15.7185294 14.5314773,14.8398824 14.5306984,13.8885882 C15.6195953,12.7866471 16.2987928,11.2358235 16.2987928,9.51982353 L16.2987928,9.38064706 C17.1438952,8.64423529 17.6244741,7.59888235 17.6244741,6.48241176 L17.6244741,3.87858824 C17.6244741,1.73970588 15.8524852,0 13.6746914,0 L7.92799514,0 C7.10314405,0 6.41070531,0.566647059 6.23233808,1.32370588 C4.71582714,1.50341176 3.53579938,2.77511765 3.53579938,4.31217647 L3.53579938,6.48241176 C3.53579938,7.59888235 4.01715724,8.64423529 4.86225963,9.38064706 L4.86225963,9.51982353 C4.86225963,11.2358235 5.54145713,12.7866471 6.62957515,13.8885882 C6.62879625,14.8398824 6.5766102,15.7185294 6.01892051,16.0725882 L2.57074696,16.5803529 C2.55361125,16.5826471 2.53725443,16.5864706 2.52011871,16.5910588 C1.76225269,16.7990588 1.11654773,17.2609412 0.65466227,17.9262353 C0.232500521,18.5326471 -0.000389448109,19.266 -0.000389448109,19.9894118 L-0.000389448109,21.6702353 C-0.000389448109,22.3707059 0.636747657,22.9411765 1.41953835,22.9411765 L19.7407352,22.9411765 C20.5235259,22.9411765 21.160663,22.3707059 21.160663,21.6702353 L21.160663,19.9894118 C21.160663,19.266 20.927773,18.5334118 20.5063901,17.9262353 C20.0437258,17.2609412 19.3987997,16.7990588 18.6401548,16.5910588 L18.6401548,16.5910588 Z"></path>
                </g>
                <g id="Group-6" transform="translate(17.914613, 0.067753)">
                    <path d="M10.6764083,6.47480588 L9.1186159,5.08151176 L9.1186159,3.32039412 L10.6764083,3.32039412 L10.6764083,6.47480588 Z M15.3949616,11.0408647 L11.4553045,7.11562941 L11.4553045,3.2531 C11.4553045,2.68874706 10.8719113,2.55568824 10.3017593,2.55568824 L9.26582728,2.55568824 C8.69022298,2.55568824 8.33971968,2.69257059 8.33971968,3.2531 L8.33971968,4.05986471 L4.49664575,0.344923529 C4.40473599,0.255452941 4.24506227,0.196570588 4.10408205,0.196570588 C3.96232294,0.196570588 3.81589045,0.255452941 3.7247596,0.344923529 L0.055379521,3.94057059 C0.107565568,4.29539412 0.172213953,4.71674706 0.239977924,5.19468824 L4.00827782,1.42468824 L12.2342008,9.5711 L12.2342008,21.6733353 L6.78192725,21.6733353 L6.78192725,12.4165706 C6.78192725,11.8568059 6.72351003,11.7321588 6.1525791,11.7321588 L2.00417785,11.7321588 C1.42857355,11.7321588 1.32965373,11.8568059 1.32965373,12.4165706 L1.32965373,17.0338647 C1.32965373,17.2135706 1.32965373,17.3382176 2.10854995,17.4391588 L2.10854995,12.4968647 L6.00303103,12.4968647 L6.00303103,21.6733353 L4.89388282,21.6733353 C4.92192308,21.6733353 4.93204873,22.4380412 4.92659646,22.4380412 L6.1525791,22.4380412 L12.3782966,22.4380412 C12.9484486,22.4380412 13.013097,21.8782765 13.013097,21.3177471 L13.013097,10.3258647 L14.4291303,11.7619824 C14.5249345,11.8568059 14.7414677,11.9103353 14.8824479,11.9103353 C15.1698606,11.9103353 15.4767457,11.6816882 15.4767457,11.3995118 C15.4720723,11.2603353 15.4860925,11.1303353 15.3949616,11.0408647 L15.3949616,11.0408647 Z" id="Fill-4"></path>
                </g>
            </g>
        </g>
    </g>
</svg>