<?xml version="1.0" encoding="UTF-8"?>
<svg width="20px" height="19px" viewBox="0 0 20 19" version="1.1" xmlns="http://www.w3.org/2000/svg" xmlns:xlink="http://www.w3.org/1999/xlink">
    <g id="index_HD" transform="translate(-541.000000, -1841.000000)">
        <g id="Group-12" transform="translate(-11.000000, 1794.000000)">
            <g id="Group-10" transform="translate(344.000000, 44.000000)">
                <path d="M208.25303,21.0882895 L212.508821,21.0882895 L212.508821,8.88315789 L208.25303,8.88315789 L208.25303,21.0882895 Z M210.409022,3 C208.952434,3 208,3.91092105 208,5.10813158 C208,6.28022368 208.925131,7.21747368 210.353146,7.21747368 L210.380767,7.21747368 C211.865611,7.21747368 212.788836,6.28022368 212.788836,5.10813158 C212.760581,3.91092105 211.865611,3 210.409022,3 L210.409022,3 Z M227.857606,14.0887237 L227.857606,21.0882895 L223.600545,21.0882895 L223.600545,14.5584079 C223.600545,12.9184474 222.985908,11.7987105 221.444553,11.7987105 C220.268298,11.7987105 219.569529,12.5528684 219.26094,13.2828158 C219.149188,13.5436842 219.11998,13.9056316 219.11998,14.2718158 L219.11998,21.0882895 L214.862602,21.0882895 C214.862602,21.0882895 214.919748,10.0283158 214.862602,8.88315789 L219.11998,8.88315789 L219.11998,10.6126974 C219.111726,10.6266184 219.099344,10.6396316 219.091725,10.6526447 L219.11998,10.6526447 L219.11998,10.6126974 C219.686043,9.78288158 220.694988,8.59656579 222.9567,8.59656579 C225.757808,8.59656579 227.857606,10.3409342 227.857606,14.0887237 L227.857606,14.0887237 Z" id="Fill-4"></path>
            </g>
        </g>
    </g>
</svg>