<?xml version="1.0" encoding="UTF-8"?>
<svg width="23px" height="25px" viewBox="0 0 23 25" version="1.1" xmlns="http://www.w3.org/2000/svg" xmlns:xlink="http://www.w3.org/1999/xlink">
    <!-- Generator: Sketch 39.1 (31720) - http://www.bohemiancoding.com/sketch -->
    <title>Page 1 Copy</title>
    <desc>Created with Sketch.</desc>
    <defs>
        <polygon id="path-1" points="0 24.5 22.1863833 24.5 22.1863833 0 0 0"></polygon>
    </defs>
    <g id="Pages" stroke="none" stroke-width="1" fill="none" fill-rule="evenodd">
        <g id="calc_all_HD" transform="translate(-727.000000, -2494.000000)">
            <g id="Group-16" transform="translate(710.000000, 2486.000000)">
                <g id="Page-1-Copy" transform="translate(17.000000, 8.000000)">
                    <mask id="mask-2" fill="white">
                        <use xlink:href="#path-1"></use>
                    </mask>
                    <g id="Clip-2"></g>
                    <path d="M21.3178583,23.1427 C21.3178583,23.4073 21.034475,23.6310667 20.698825,23.6310667 L1.488375,23.6310667 C1.152725,23.6310667 0.868525,23.4073 0.868525,23.1427 L0.868525,21.3476667 C0.868525,20.2459833 1.549625,18.94095 2.85220833,18.5620167 L6.13030833,18.0703833 C6.616225,20.1814667 8.67014167,21.7233333 11.0931917,21.7233333 C13.5162417,21.7233333 15.570975,20.1814667 16.0568917,18.0703833 L19.3349917,18.5620167 C20.6367583,18.94095 21.3178583,20.2459833 21.3178583,21.3476667 L21.3178583,23.1427 L21.3178583,23.1427 Z M5.966975,9.8588 C5.969425,9.83266667 5.969425,9.80653333 5.966975,9.77958333 L5.966975,7.38593333 C5.966975,6.60356667 6.60315833,5.96656667 7.385525,5.96656667 L15.2639083,5.96656667 C15.5040083,5.96656667 15.698375,5.7722 15.698375,5.5321 C15.698375,5.292 15.5040083,5.09763333 15.2639083,5.09763333 L7.385525,5.09763333 C6.12459167,5.09763333 5.09804167,6.12418333 5.09804167,7.38593333 L5.09804167,8.69505 C4.76075833,8.17401667 4.57619167,7.56233333 4.57619167,6.92288333 L4.57619167,4.60518333 C4.57619167,3.31158333 5.628875,2.2589 6.922475,2.2589 C7.162575,2.2589 7.35694167,2.06453333 7.35694167,1.82443333 C7.35694167,1.29768333 7.78569167,0.868933333 8.31244167,0.868933333 L14.3378083,0.868933333 C16.141825,0.868933333 17.6101917,2.3373 17.6101917,4.14213333 L17.6101917,6.92288333 C17.6101917,7.56233333 17.425625,8.17401667 17.0891583,8.69505 L17.0891583,6.92288333 C17.0891583,6.68278333 16.8947917,6.48841667 16.6546917,6.48841667 C16.4145917,6.48841667 16.220225,6.68278333 16.220225,6.92288333 L16.220225,10.1666833 C16.220225,13.2487833 13.9204917,15.7567667 11.0931917,15.7567667 C8.26670833,15.7567667 5.966975,13.2487833 5.966975,10.1666833 L5.966975,9.8588 L5.966975,9.8588 Z M11.0931917,16.6257 C12.3067583,16.6257 13.4362083,16.2353333 14.3810917,15.5656667 C14.4227417,16.35865 14.5868917,17.2382 15.2320583,17.7682167 C14.8833417,19.54365 13.150375,20.8544 11.0931917,20.8544 C9.036825,20.8544 7.30385833,19.54365 6.95514167,17.7682167 C7.60030833,17.2382 7.76445833,16.35865 7.80610833,15.5656667 C8.750175,16.2353333 9.88044167,16.6257 11.0931917,16.6257 L11.0931917,16.6257 Z M19.5440583,17.7184 C19.5269083,17.7135 19.5089417,17.7094167 19.490975,17.7069667 L15.8764083,17.1647 C15.291675,16.7865833 15.2361417,15.8482333 15.235325,14.8323 C16.377025,13.6554833 17.0891583,11.9992833 17.0891583,10.1666833 L17.0891583,10.01805 C17.9752417,9.2316 18.479125,8.11521667 18.479125,6.92288333 L18.479125,4.14213333 C18.479125,1.85791667 16.6212083,0 14.3378083,0 L8.31244167,0 C7.44759167,0 6.721575,0.60515 6.53455833,1.41365 C4.94450833,1.60556667 3.70725833,2.96368333 3.70725833,4.60518333 L3.70725833,6.92288333 C3.70725833,8.11521667 4.21195833,9.2316 5.09804167,10.01805 L5.09804167,10.1666833 C5.09804167,11.9992833 5.810175,13.6554833 6.95105833,14.8323 C6.95024167,15.8482333 6.895525,16.7865833 6.31079167,17.1647 L2.69540833,17.7069667 C2.67744167,17.7094167 2.66029167,17.7135 2.642325,17.7184 C1.84770833,17.9405333 1.17069167,18.4338 0.686408333,19.1443 C0.243775,19.7919167 -0.000408333333,20.5751 -0.000408333333,21.3476667 L-0.000408333333,23.1427 C-0.000408333333,23.8907667 0.667625,24.5 1.488375,24.5 L20.6980083,24.5 C21.5187583,24.5 22.1867917,23.8907667 22.1867917,23.1427 L22.1867917,21.3476667 C22.1867917,20.5751 21.9426083,19.7927333 21.5007917,19.1443 C21.0156917,18.4338 20.3394917,17.9405333 19.5440583,17.7184 L19.5440583,17.7184 Z" id="Fill-1" fill="#9B9B9B" mask="url(#mask-2)"></path>
                </g>
            </g>
        </g>
    </g>
</svg>