<?xml version="1.0" encoding="UTF-8"?>
<svg width="80px" height="99px" viewBox="0 0 80 99" version="1.1" xmlns="http://www.w3.org/2000/svg" xmlns:xlink="http://www.w3.org/1999/xlink">
    <!-- Generator: Sketch 39.1 (31720) - http://www.bohemiancoding.com/sketch -->
    <title>Page 1</title>
    <desc>Created with Sketch.</desc>
    <defs></defs>
    <g id="Pages" stroke="none" stroke-width="1" fill="none" fill-rule="evenodd">
        <g id="index_HD" transform="translate(-485.000000, -1401.000000)" fill="#77BC1F">
            <g id="Group" transform="translate(30.000000, 1202.000000)">
                <g id="Page-1" transform="translate(455.000000, 199.000000)">
                    <path d="M55.8962028,74.3754 L75.5613746,74.3754 L75.5613746,57.7632 L55.8962028,57.7632 L55.8962028,74.3754 Z M70.478107,91.3209 C70.478107,93.6474 68.5928563,95.5383 66.2765972,95.5383 L3.45135775,95.5383 L3.45135775,36.6036 L66.2765972,36.6036 C68.5928563,36.6036 70.478107,38.4945 70.478107,40.821 L70.478107,54.3048 L54.1688789,54.3048 C53.214738,54.3048 52.4448451,55.0803 52.4448451,56.034 L52.4448451,76.1079 C52.4448451,77.0616 53.214738,77.8371 54.1688789,77.8371 L70.478107,77.8371 L70.478107,91.3209 L70.478107,91.3209 Z M26.9166423,12.012 C28.6702873,13.0119 30.6377915,13.5333 32.6941296,13.5333 C35.7704113,13.5333 38.6492845,12.3552 40.8273577,10.2564 L55.9554254,22.0473 C54.9618028,23.8062 54.4386704,25.7796 54.4386704,27.8421 C54.4386704,29.7132 54.8762592,31.5183 55.6922141,33.1419 L10.5481915,33.1419 L26.9166423,12.012 Z M33.0001127,4.158 L38.0603493,8.1015 C36.5732056,9.3687 34.6912451,10.0716 32.6941296,10.0716 C31.4142648,10.0716 30.1837521,9.7878 29.0651042,9.24 L33.0001127,4.158 Z M49.3981746,5.4615 L52.583031,15.0348 L43.0317521,7.5933 L49.3981746,5.4615 Z M59.9200451,33.1419 L59.7884394,33.1419 C58.5612169,31.6536 57.8900282,29.7957 57.8900282,27.8421 C57.8900282,26.5584 58.1729803,25.3242 58.7224338,24.1989 L63.7859606,28.149 L59.9200451,33.1419 Z M77.2854085,54.3048 L73.9294648,54.3048 L73.9294648,40.821 C73.9294648,36.5871 70.4945577,33.1419 66.2765972,33.1419 L64.2893521,33.1419 L67.5696225,28.9047 C68.1552676,28.149 68.0170817,27.0633 67.2669296,26.4759 L57.4919211,18.8628 L52.1257014,2.7258 C51.9809352,2.2902 51.671662,1.9305 51.2603944,1.7226 C50.8524169,1.518 50.3786366,1.485 49.944338,1.6302 L39.7547718,5.0391 L33.7535549,0.363 C33.0001127,-0.2211 31.9176563,-0.0858 31.3320113,0.6699 L6.17888451,33.1419 L1.7240338,33.1419 C0.773183099,33.1419 0,33.9174 0,34.8744 L0,97.2708 C0,98.2245 0.773183099,99 1.7240338,99 L66.2765972,99 C70.4945577,99 73.9294648,95.5548 73.9294648,91.3209 L73.9294648,77.8371 L77.2854085,77.8371 C78.2362592,77.8371 79.0094423,77.0616 79.0094423,76.1079 L79.0094423,56.034 C79.0094423,55.0803 78.2362592,54.3048 77.2854085,54.3048 L77.2854085,54.3048 Z" id="Fill-1"></path>
                    <path d="M65.7268146,64.34043 C66.6776654,64.34043 67.4508485,65.11593 67.4508485,66.06963 C67.4508485,67.02333 66.6776654,67.80213 65.7268146,67.80213 C64.7759639,67.80213 64.0027808,67.02333 64.0027808,66.06963 C64.0027808,65.11593 64.7759639,64.34043 65.7268146,64.34043 M65.7268146,71.26053 C68.5793668,71.26053 70.9022062,68.93403 70.9022062,66.06963 C70.9022062,63.20853 68.5793668,60.87873 65.7268146,60.87873 C62.8742625,60.87873 60.5514231,63.20853 60.5514231,66.06963 C60.5514231,68.93403 62.8742625,71.26053 65.7268146,71.26053" id="Fill-3"></path>
                </g>
            </g>
        </g>
    </g>
</svg>