<svg id="SvgjsSvg1024" xmlns="http://www.w3.org/2000/svg" version="1.1" xmlns:xlink="http://www.w3.org/1999/xlink" xmlns:svgjs="http://svgjs.com/svgjs" width="34" height="42" viewBox="0 0 34 42"><title>Fill 1</title><desc>Created with Avocode.</desc><defs id="SvgjsDefs1025"></defs><path id="SvgjsPath1026" d="M1342.18 39.25C1344.99 36.73 1348.19 36.36 1349.8400000000001 36.36C1351.5000000000002 36.36 1354.69 36.73 1357.5100000000002 39.25C1361.2200000000003 42.57 1363.1100000000001 48.45 1363.1100000000001 56.730000000000004C1363.1100000000001 57.49 1361.92 58.28 1360.3400000000001 58.95C1361.14 57.790000000000006 1361.41 56.5 1361.5000000000002 55.800000000000004C1361.9700000000003 55.57000000000001 1362.2800000000002 55.09 1362.2800000000002 54.550000000000004L1362.2800000000002 50.95C1362.2800000000002 50.17 1361.64 49.540000000000006 1360.8600000000001 49.540000000000006L1359.5500000000002 49.540000000000006C1359.5000000000002 49.53000000000001 1359.4500000000003 49.52 1359.4 49.510000000000005C1353.44 49.230000000000004 1344.45 47.010000000000005 1341.8200000000002 45.49000000000001C1341.65 45.400000000000006 1341.4500000000003 45.37000000000001 1341.2600000000002 45.43000000000001C1341.0800000000002 45.49000000000001 1340.9200000000003 45.63000000000001 1340.8400000000001 45.800000000000004C1340.3200000000002 46.96 1339.96 48.220000000000006 1339.7700000000002 49.510000000000005L1338.8300000000002 49.510000000000005C1338.0400000000002 49.510000000000005 1337.41 50.14000000000001 1337.41 50.92L1337.41 54.550000000000004C1337.41 55.32000000000001 1338.0400000000002 55.95 1338.8300000000002 55.95L1340.2600000000002 55.95C1340.7300000000002 57.45 1341.4300000000003 58.81 1342.3200000000002 59.96C1339.5300000000002 59.19 1336.5800000000002 57.93 1336.5800000000002 56.730000000000004C1336.5800000000002 48.45 1338.4700000000003 42.57000000000001 1342.18 39.25ZM1341.82 47.03C1343.3799999999999 47.75 1345.96 48.57 1348.98 49.28C1352.43 50.09 1355.92 50.65 1358.69 50.84C1358.7 51.160000000000004 1358.7 51.510000000000005 1358.7 51.650000000000006C1358.7 54.93000000000001 1357.53 57.870000000000005 1355.67 59.88000000000001C1354.97 59.88000000000001 1354.2 59.77000000000001 1353.3600000000001 59.56000000000001C1353.43 59.35000000000001 1353.47 59.13000000000001 1353.47 58.90000000000001C1353.47 57.73000000000001 1352.5 56.77000000000001 1351.31 56.77000000000001C1350.12 56.77000000000001 1349.1599999999999 57.73000000000001 1349.1599999999999 58.90000000000001C1349.1599999999999 60.08000000000001 1350.12 61.030000000000015 1351.31 61.030000000000015C1351.73 61.030000000000015 1352.12 60.920000000000016 1352.45 60.72000000000001C1353.07 60.90000000000001 1353.67 61.04000000000001 1354.25 61.13000000000001C1352.95 62.05000000000001 1351.45 62.58000000000001 1349.84 62.58000000000001C1344.9599999999998 62.58000000000001 1340.99 57.670000000000016 1340.99 51.65000000000001C1340.99 50.05000000000001 1341.27 48.47000000000001 1341.82 47.030000000000015ZM1342.21 66.93L1345.16 71.01C1345.39 71.32000000000001 1345.74 71.53 1346.1200000000001 71.59C1346.19 71.60000000000001 1346.2500000000002 71.60000000000001 1346.3200000000002 71.60000000000001C1346.64 71.60000000000001 1346.9600000000003 71.49000000000001 1347.2100000000003 71.29L1349.1600000000003 69.75L1349.1600000000003 73.42C1349.1600000000003 73.79 1349.4600000000003 74.10000000000001 1349.8400000000004 74.10000000000001C1350.2200000000005 74.10000000000001 1350.5300000000004 73.79 1350.5300000000004 73.42L1350.5300000000004 69.75L1352.4800000000005 71.29C1352.7300000000005 71.49000000000001 1353.0500000000004 71.60000000000001 1353.3700000000006 71.60000000000001C1353.4400000000005 71.60000000000001 1353.5000000000007 71.60000000000001 1353.5600000000006 71.59C1353.9500000000007 71.53 1354.3000000000006 71.32000000000001 1354.5300000000007 71.01L1357.4800000000007 66.93L1362.5000000000007 68.17C1362.6400000000008 68.21000000000001 1362.7900000000006 68.25 1362.9300000000007 68.31L1360.2800000000007 71.45C1359.7400000000007 72.09 1359.4400000000007 72.9 1359.4400000000007 73.74000000000001L1359.4400000000007 75.64000000000001L1340.2500000000007 75.64000000000001L1340.2500000000007 73.74000000000001C1340.2500000000007 72.9 1339.9500000000007 72.09 1339.4100000000008 71.45L1336.7600000000007 68.31C1336.9000000000008 68.25 1337.0500000000006 68.21000000000001 1337.1900000000007 68.17ZM1353.56 63.1L1353.56 64.29L1349.84 67.44000000000001L1346.1299999999999 64.29L1346.1299999999999 63.10000000000001C1347.28 63.64000000000001 1348.53 63.94000000000001 1349.84 63.94000000000001C1351.1499999999999 63.94000000000001 1352.4099999999999 63.640000000000015 1353.56 63.10000000000001ZM1364.53 75.64L1360.81 75.64L1360.81 73.74C1360.81 73.22 1361 72.72 1361.33 72.32L1364.11 69.02999999999999C1364.86 69.71 1365.31 70.67999999999999 1365.31 71.73999999999998L1365.31 74.86999999999998C1365.31 75.28999999999998 1364.96 75.63999999999997 1364.53 75.63999999999997ZM1334.38 71.74C1334.38 70.67999999999999 1334.8300000000002 69.71 1335.5800000000002 69.03L1338.3500000000001 72.32000000000001C1338.69 72.72000000000001 1338.8700000000001 73.22000000000001 1338.8700000000001 73.74000000000001L1338.8700000000001 75.64000000000001L1335.16 75.64000000000001C1334.73 75.64000000000001 1334.38 75.29000000000002 1334.38 74.87000000000002ZM1356.29 66.23L1353.4099999999999 70.22C1353.3999999999999 70.22 1353.3999999999999 70.24 1353.3799999999999 70.24C1353.36 70.24 1353.34 70.22999999999999 1353.34 70.22999999999999L1350.9199999999998 68.32L1354.9199999999998 64.94C1354.9299999999998 64.92 1354.9599999999998 64.92 1354.9799999999998 64.94ZM1344.77 64.94L1348.76 68.32L1346.35 70.22999999999999C1346.34 70.22999999999999 1346.33 70.24 1346.31 70.24C1346.29 70.24 1346.29 70.22 1346.28 70.22L1343.3999999999999 66.23L1344.7099999999998 64.94C1344.7299999999998 64.92 1344.7499999999998 64.92 1344.7699999999998 64.94ZM1357.75 59.44C1358.46 58.4 1359.03 57.23 1359.43 55.949999999999996L1360.0900000000001 55.949999999999996C1359.93 56.81999999999999 1359.4900000000002 58.269999999999996 1358.2500000000002 59.13999999999999C1358.0900000000001 59.24999999999999 1357.9300000000003 59.349999999999994 1357.7500000000002 59.43999999999999ZM1338.83 54.59C1338.8 54.59 1338.78 54.57 1338.78 54.550000000000004L1338.78 50.92C1338.78 50.89 1338.8 50.870000000000005 1338.83 50.870000000000005L1339.6299999999999 50.870000000000005C1339.62 51.13 1339.61 51.39000000000001 1339.61 51.650000000000006C1339.61 52.660000000000004 1339.7099999999998 53.650000000000006 1339.9099999999999 54.59ZM1360.91 54.55C1360.91 54.57 1360.88 54.589999999999996 1360.8600000000001 54.589999999999996L1359.7800000000002 54.589999999999996C1359.9700000000003 53.65 1360.0800000000002 52.66 1360.0800000000002 51.65C1360.0800000000002 51.519999999999996 1360.0800000000002 51.21 1360.0700000000002 50.9L1360.8600000000001 50.9C1360.88 50.9 1360.91 50.92 1360.91 50.949999999999996ZM1350.53 58.9C1350.53 58.48 1350.8799999999999 58.129999999999995 1351.31 58.129999999999995C1351.74 58.129999999999995 1352.09 58.48 1352.09 58.9C1352.09 59.33 1351.74 59.67 1351.31 59.67C1350.8799999999999 59.67 1350.53 59.33 1350.53 58.9ZM1357.54 65.55L1355.95 63.98C1355.68 63.699999999999996 1355.31 63.57 1354.94 63.57L1354.94 62.3C1355.18 62.14 1355.41 61.959999999999994 1355.64 61.769999999999996C1355.92 61.709999999999994 1357.88 61.31999999999999 1359.8700000000001 60.599999999999994C1362.98 59.48 1364.49 58.21999999999999 1364.49 56.73C1364.49 48.05 1362.45 41.83 1358.43 38.239999999999995C1355.28 35.419999999999995 1351.7 34.99999999999999 1349.8400000000001 34.99999999999999C1347.9900000000002 34.99999999999999 1344.41 35.419999999999995 1341.2600000000002 38.239999999999995C1337.2400000000002 41.83 1335.2000000000003 48.05 1335.2000000000003 56.72999999999999C1335.2000000000003 58.21999999999999 1336.7100000000003 59.47999999999999 1339.8200000000002 60.59999999999999C1341.8100000000002 61.319999999999986 1343.7600000000002 61.70999999999999 1344.0500000000002 61.76999999999999C1344.2800000000002 61.95999999999999 1344.5100000000002 62.139999999999986 1344.7500000000002 62.29999999999999L1344.7500000000002 63.56999999999999C1344.3800000000003 63.56999999999999 1344.0100000000002 63.699999999999996 1343.7400000000002 63.97999999999999L1342.1500000000003 65.54999999999998L1336.8600000000004 66.84999999999998C1334.5900000000004 67.40999999999998 1333.0000000000005 69.41999999999997 1333.0000000000005 71.73999999999998L1333.0000000000005 74.86999999999998C1333.0000000000005 76.03999999999998 1333.9700000000005 76.99999999999997 1335.1600000000005 76.99999999999997L1364.5300000000004 76.99999999999997C1365.7200000000005 76.99999999999997 1366.6900000000005 76.03999999999998 1366.6900000000005 74.86999999999998L1366.6900000000005 71.73999999999998C1366.6900000000005 69.41999999999999 1365.1000000000006 67.40999999999998 1362.8300000000006 66.84999999999998Z " fill="#ffffff" fill-opacity="1" transform="matrix(1,0,0,1,-1333,-35)"></path></svg>