<svg id="SvgjsSvg1021" xmlns="http://www.w3.org/2000/svg" version="1.1" xmlns:xlink="http://www.w3.org/1999/xlink" xmlns:svgjs="http://svgjs.com/svgjs" width="53" height="45" viewBox="0 0 53 45"><title>Page 1</title><desc>Created with Avocode.</desc><defs id="SvgjsDefs1022"></defs><path id="SvgjsPath1023" d="M923.04 48.03C923.04 45.31 925.25 43.1 927.9699999999999 43.1C929.68 43.1 931.2799999999999 44 932.17 45.45L931.12 50.040000000000006L930.87 50.040000000000006C930.44 50.040000000000006 930.07 50.36000000000001 930.01 50.790000000000006L929.76 52.63000000000001C929.1899999999999 52.85000000000001 928.59 52.97000000000001 927.97 52.97000000000001C925.25 52.97000000000001 923.0400000000001 50.750000000000014 923.0400000000001 48.030000000000015ZM936.18 69.2L931.56 69.2L931.56 66.79C932.02 66.15 932.25 65.44000000000001 932.25 64.7C932.25 62.52 931.33 61.330000000000005 930.29 60.49L930.29 56.74L937.4499999999999 56.74L937.4499999999999 60.49C936.41 61.330000000000005 935.4899999999999 62.52 935.4899999999999 64.7C935.4899999999999 65.44 935.7199999999999 66.15 936.18 66.79ZM923.71 67.24L929.83 67.24L929.83 79.89999999999999L923.71 79.89999999999999ZM939.28 79.9L937.91 79.9L937.91 67.24000000000001L944.03 67.24000000000001L944.03 75.15L940.15 75.15C939.67 75.15 939.28 75.54 939.28 76.02000000000001ZM948.76 63.43L956.93 63.43L956.93 71.74L948.76 71.74ZM931.56 70.93L936.18 70.93L936.18 79.9L931.56 79.9ZM949.95 51.19L955.74 51.19L955.74 57.209999999999994L949.95 57.209999999999994ZM951.7 79.9L941.0200000000001 79.9L941.0200000000001 76.88000000000001L951.7 76.88000000000001ZM923.54 62.67C923.77 62.33 924.06 62.050000000000004 924.4 61.78C924.67 62 925.0799999999999 62.28 925.65 62.56C926.9599999999999 63.21 928.5699999999999 63.6 930.43 63.74C930.4899999999999 64.02 930.52 64.34 930.52 64.7C930.52 64.95 930.46 65.21000000000001 930.35 65.45C927.12 64.94 924.5400000000001 63.35 923.5400000000001 62.67ZM956.93 58.94L956.93 61.699999999999996L956.1999999999999 61.699999999999996L956.1999999999999 61.17999999999999C956.1999999999999 60.699999999999996 955.8199999999999 60.309999999999995 955.3399999999999 60.309999999999995C954.8599999999999 60.309999999999995 954.4699999999999 60.699999999999996 954.4699999999999 61.17999999999999L954.4699999999999 61.699999999999996L953.66 61.699999999999996L953.66 61.17999999999999C953.66 60.699999999999996 953.28 60.309999999999995 952.8 60.309999999999995C952.3199999999999 60.309999999999995 951.93 60.699999999999996 951.93 61.17999999999999L951.93 61.699999999999996L951.12 61.699999999999996L951.12 61.17999999999999C951.12 60.699999999999996 950.74 60.309999999999995 950.26 60.309999999999995C949.78 60.309999999999995 949.39 60.699999999999996 949.39 61.17999999999999L949.39 61.699999999999996L948.76 61.699999999999996L948.76 58.94ZM958.09 79.9L953.4300000000001 79.9L953.4300000000001 76.88000000000001L958.09 76.88000000000001ZM948.76 73.47L956.93 73.47L956.93 75.15L948.76 75.15ZM954.82 46.81L954.82 49.46L953.71 49.46L953.71 48.94C953.71 48.46 953.32 48.08 952.85 48.08C952.37 48.08 951.98 48.46 951.98 48.94L951.98 49.46L950.88 49.46L950.88 46.81ZM933.87 45.79L934.84 50.04L932.9 50.04ZM941.71 64.7C941.71 64.98 941.69 65.25 941.6500000000001 65.51L940.2800000000001 65.51C940.2500000000001 65.25 940.2300000000001 64.98 940.2300000000001 64.7C940.2300000000001 62.580000000000005 940.5600000000002 61.790000000000006 940.9700000000001 61.010000000000005C941.3700000000001 61.790000000000006 941.7100000000002 62.580000000000005 941.7100000000002 64.7ZM938.86 61.6C938.64 62.32 938.5 63.27 938.5 64.7C938.5 64.97 938.51 65.24000000000001 938.54 65.51L937.42 65.51C937.29 65.25 937.2199999999999 64.97 937.2199999999999 64.7C937.2199999999999 63.02 937.8699999999999 62.290000000000006 938.8599999999999 61.6ZM944.52 65.51L943.4 65.51C943.42 65.24000000000001 943.4399999999999 64.97 943.4399999999999 64.7C943.4399999999999 63.27 943.29 62.32 943.0799999999999 61.6C944.06 62.29 944.7199999999999 63.02 944.7199999999999 64.7C944.7199999999999 64.97 944.6499999999999 65.25 944.5199999999999 65.51ZM928.19 61.13C928.57 61.38 928.9300000000001 61.61 929.24 61.86C927.59 61.589999999999996 926.54 61.11 925.94 60.74C926.22 60.550000000000004 926.5 60.34 926.7700000000001 60.1C927.2300000000001 60.5 927.7100000000002 60.82 928.19 61.13ZM936.56 55L931.18 55L931.29 54.25L936.4499999999999 54.25ZM952.85 42.87L953.72 45.08L951.97 45.08ZM936.11 51.77L936.22 52.52L931.52 52.52L931.63 51.77ZM934.74 41.9C934.74 42.379999999999995 934.35 42.769999999999996 933.87 42.769999999999996C933.39 42.769999999999996 933 42.379999999999995 933 41.9C933 41.43 933.39 41.04 933.87 41.04C934.35 41.04 934.74 41.43 934.74 41.9ZM923.03 64.41C923.52 64.72999999999999 924.18 65.11999999999999 924.97 65.50999999999999L923.22 65.50999999999999C923.09 65.24999999999999 923.02 64.96999999999998 923.02 64.69999999999999C923.02 64.6 923.02 64.49999999999999 923.03 64.40999999999998ZM970.45 65.1L970.45 63.25999999999999C970.45 62.779999999999994 970.07 62.38999999999999 969.59 62.38999999999999C969.11 62.38999999999999 968.72 62.779999999999994 968.72 63.25999999999999L968.72 64.24L968.1 64.24L968.1 63.26C968.1 62.78 967.71 62.39 967.24 62.39C966.76 62.39 966.37 62.78 966.37 63.26L966.37 64.24L965.75 64.24L965.75 63.26C965.75 62.78 965.36 62.39 964.89 62.39C964.41 62.39 964.02 62.78 964.02 63.26L964.02 64.24L963.4 64.24L963.4 63.26C963.4 62.78 963.01 62.39 962.54 62.39C962.06 62.39 961.67 62.78 961.67 63.26L961.67 64.24L961.05 64.24L961.05 63.26C961.05 62.78 960.66 62.39 960.18 62.39C959.7099999999999 62.39 959.3199999999999 62.78 959.3199999999999 63.26L959.3199999999999 64.24L958.66 64.24L958.66 58.06999999999999C958.66 57.599999999999994 958.28 57.209999999999994 957.8 57.209999999999994L957.4699999999999 57.209999999999994L957.4699999999999 50.32999999999999C957.4699999999999 49.849999999999994 957.0899999999999 49.459999999999994 956.6099999999999 49.459999999999994L956.55 49.459999999999994L956.55 45.93999999999999C956.55 45.46999999999999 956.16 45.07999999999999 955.68 45.07999999999999L955.5799999999999 45.07999999999999L953.7099999999999 40.33999999999999L953.7099999999999 38.19999999999999C953.7099999999999 37.71999999999999 953.3299999999999 37.32999999999999 952.8499999999999 37.32999999999999C952.3699999999999 37.32999999999999 951.9799999999999 37.71999999999999 951.9799999999999 38.19999999999999L951.9799999999999 40.33999999999999L950.1099999999999 45.07999999999999L950.0099999999999 45.07999999999999C949.5299999999999 45.07999999999999 949.1399999999999 45.46999999999999 949.1399999999999 45.93999999999999L949.1399999999999 49.459999999999994L949.0899999999999 49.459999999999994C948.6099999999999 49.459999999999994 948.2199999999999 49.849999999999994 948.2199999999999 50.32999999999999L948.2199999999999 57.209999999999994L947.8899999999999 57.209999999999994C947.4199999999998 57.209999999999994 947.0299999999999 57.599999999999994 947.0299999999999 58.06999999999999L947.0299999999999 75.14999999999999L945.7599999999999 75.14999999999999L945.7599999999999 66.78999999999999C946.2099999999999 66.14999999999999 946.4499999999999 65.44 946.4499999999999 64.69999999999999C946.4499999999999 61.71999999999999 944.7199999999999 60.58999999999999 943.3299999999999 59.67999999999999C942.78 59.31999999999999 942.2599999999999 58.97999999999999 941.8299999999999 58.53999999999999L941.8299999999999 57.01999999999999C941.8299999999999 56.54999999999999 941.4499999999999 56.15999999999999 940.9699999999999 56.15999999999999C940.4899999999999 56.15999999999999 940.0999999999999 56.54999999999999 940.0999999999999 57.01999999999999L940.0999999999999 58.53999999999999C939.8299999999999 58.81999999999999 939.5199999999999 59.059999999999995 939.18 59.29999999999999L939.18 55.86999999999999C939.18 55.38999999999999 938.79 54.99999999999999 938.31 54.99999999999999L937.7299999999999 50.78999999999999C937.67 50.35999999999999 937.3 50.03999999999999 936.8699999999999 50.03999999999999L936.6199999999999 50.03999999999999L935.2599999999999 44.099999999999994C935.9799999999999 43.63999999999999 936.4699999999999 42.82999999999999 936.4699999999999 41.91C936.4699999999999 40.779999999999994 935.7399999999999 39.809999999999995 934.7399999999999 39.459999999999994L934.7399999999999 37.86999999999999C934.7399999999999 37.38999999999999 934.3499999999999 36.99999999999999 933.8699999999999 36.99999999999999C933.3899999999999 36.99999999999999 933.0099999999999 37.38999999999999 933.0099999999999 37.86999999999999L933.0099999999999 39.459999999999994C931.9999999999999 39.809999999999995 931.2699999999999 40.779999999999994 931.2699999999999 41.91C931.2699999999999 42.029999999999994 931.2799999999999 42.15 931.2999999999998 42.26C930.2999999999998 41.69 929.1599999999999 41.37 927.9699999999998 41.37C924.2999999999998 41.37 921.3099999999998 44.36 921.3099999999998 48.03C921.3099999999998 51.71 924.2999999999998 54.7 927.9699999999998 54.7C928.4899999999998 54.7 929.0099999999998 54.64 929.4999999999998 54.52L929.4399999999998 55L929.4299999999998 55C928.9499999999998 55 928.5599999999998 55.39 928.5599999999998 55.87L928.5599999999998 59.3C928.2199999999998 59.059999999999995 927.9099999999999 58.82 927.6399999999999 58.54L927.6399999999999 57.019999999999996C927.6399999999999 56.55 927.2499999999999 56.16 926.7699999999999 56.16C926.2899999999998 56.16 925.9099999999999 56.55 925.9099999999999 57.019999999999996L925.9099999999999 58.54C925.4899999999999 58.98 924.9599999999998 59.32 924.4099999999999 59.68C923.0199999999999 60.589999999999996 921.2899999999998 61.72 921.2899999999998 64.7C921.2899999999998 65.44 921.5299999999999 66.15 921.9799999999999 66.79L921.9799999999999 79.9L918.8699999999999 79.9C918.3899999999999 79.9 917.9999999999999 80.29 917.9999999999999 80.76C917.9999999999999 81.24000000000001 918.3899999999999 81.63000000000001 918.8699999999999 81.63000000000001L969.5899999999999 81.63000000000001C970.0699999999999 81.63000000000001 970.4499999999999 81.24000000000001 970.4499999999999 80.76C970.4499999999999 80.29 970.0699999999999 79.9 969.5899999999999 79.9L959.8199999999999 79.9L959.8199999999999 76.02000000000001C959.8199999999999 75.54 959.43 75.15 958.9499999999999 75.15L958.66 75.15L958.66 65.97L969.5899999999999 65.97C970.0699999999999 65.97 970.4499999999999 65.58 970.4499999999999 65.1Z " fill="#77bc1f" fill-opacity="1" transform="matrix(1,0,0,1,-918,-37)"></path></svg>