<?xml version="1.0" encoding="UTF-8"?>
<svg width="29px" height="27px" viewBox="0 0 29 27" version="1.1" xmlns="http://www.w3.org/2000/svg" xmlns:xlink="http://www.w3.org/1999/xlink">
    <!-- Generator: Sketch 39.1 (31720) - http://www.bohemiancoding.com/sketch -->
    <title>Page 1 Copy 6</title>
    <desc>Created with Sketch.</desc>
    <defs></defs>
    <g id="Pages" stroke="none" stroke-width="1" fill="none" fill-rule="evenodd">
        <g id="index_HD" transform="translate(-43.000000, -154.000000)" fill="#77BC1F">
            <g id="Page-1-Copy-6" transform="translate(43.000000, 154.000000)">
                <g id="Group-3" transform="translate(0.000000, 0.366193)">
                    <path d="M28.0604967,22.4695586 C28.0604967,23.8958871 26.92273,25.0560729 25.5239633,25.0560729 L3.47623,25.0560729 C2.07746333,25.0560729 0.939696667,23.8958871 0.939696667,22.4695586 L0.939696667,8.16290143 C0.939696667,6.73657286 2.07746333,5.57638714 3.47623,5.57638714 L25.5239633,5.57638714 C26.92273,5.57638714 28.0604967,6.73657286 28.0604967,8.16290143 L28.0604967,22.4695586 Z M4.44676333,4.07514429 C4.44676333,4.05740143 4.46126333,4.04360143 4.47866333,4.04360143 L5.98183,4.04360143 C5.99923,4.04360143 6.01276333,4.05740143 6.01276333,4.07514429 L6.01276333,4.61827286 L4.44676333,4.61827286 L4.44676333,4.07514429 Z M11.9635633,4.61827286 L17.03663,4.61827286 L17.03663,3.02141571 L11.9635633,3.02141571 L11.9635633,4.61827286 Z M9.95869667,2.54235857 C9.95869667,1.67985857 10.6469633,0.97803 11.4937633,0.97803 L17.50643,0.97803 C18.3522633,0.97803 19.0414967,1.67985857 19.0414967,2.54235857 L19.0414967,4.61827286 L17.97623,4.61827286 L17.97623,2.54235857 C17.97623,2.27818714 17.7664633,2.06330143 17.50643,2.06330143 L11.4937633,2.06330143 C11.23373,2.06330143 11.0239633,2.27818714 11.0239633,2.54235857 L11.0239633,4.61827286 L9.95869667,4.61827286 L9.95869667,2.54235857 Z M22.98743,4.07514429 C22.98743,4.05740143 23.0009633,4.04360143 23.0183633,4.04360143 L24.52153,4.04360143 C24.53893,4.04360143 24.5524633,4.05740143 24.5524633,4.07514429 L24.5524633,4.61827286 L22.98743,4.61827286 L22.98743,4.07514429 Z M25.5239633,4.61827286 L25.4920633,4.61827286 L25.4920633,4.07514429 C25.4920633,3.52905857 25.0570633,3.08548714 24.52153,3.08548714 L23.0183633,3.08548714 C22.48283,3.08548714 22.04783,3.52905857 22.04783,4.07514429 L22.04783,4.61827286 L19.98013,4.61827286 L19.98013,2.54235857 C19.98013,1.15151571 18.8703967,0.0199157143 17.50643,0.0199157143 L11.4937633,0.0199157143 C10.1297967,0.0199157143 9.01909667,1.15151571 9.01909667,2.54235857 L9.01909667,4.61827286 L6.95236333,4.61827286 L6.95236333,4.07514429 C6.95236333,3.52905857 6.51736333,3.08548714 5.98183,3.08548714 L4.47866333,3.08548714 C3.94313,3.08548714 3.50716333,3.52905857 3.50716333,4.07514429 L3.50716333,4.61827286 L3.47623,4.61827286 C1.55933,4.61827286 9.66666666e-05,6.20823 9.66666666e-05,8.16290143 L9.66666666e-05,22.4695586 C9.66666666e-05,24.42423 1.55933,26.0141871 3.47623,26.0141871 L25.5239633,26.0141871 C27.4408633,26.0141871 29.0000967,24.42423 29.0000967,22.4695586 L29.0000967,8.16290143 C29.0000967,6.20823 27.4408633,4.61827286 25.5239633,4.61827286 L25.5239633,4.61827286 Z" id="Fill-1"></path>
                </g>
                <path d="M25.02265,15.2033657 L3.97735,15.2033657 C3.71731667,15.2033657 3.50755,15.4182514 3.50755,15.6824229 C3.50755,15.9465943 3.71731667,16.16148 3.97735,16.16148 L25.02265,16.16148 C25.2817167,16.16148 25.49245,15.9465943 25.49245,15.6824229 C25.49245,15.4182514 25.2817167,15.2033657 25.02265,15.2033657" id="Fill-4"></path>
                <path d="M25.02265,10.0938171 L3.97735,10.0938171 C3.71731667,10.0938171 3.50755,10.3087029 3.50755,10.5728743 C3.50755,10.8370457 3.71731667,11.0519314 3.97735,11.0519314 L25.02265,11.0519314 C25.2817167,11.0519314 25.49245,10.8370457 25.49245,10.5728743 C25.49245,10.3087029 25.2817167,10.0938171 25.02265,10.0938171" id="Fill-6"></path>
                <path d="M25.02265,20.3129143 L3.97735,20.3129143 C3.71731667,20.3129143 3.50755,20.5278 3.50755,20.7919714 C3.50755,21.0561429 3.71731667,21.2710286 3.97735,21.2710286 L25.02265,21.2710286 C25.2817167,21.2710286 25.49245,21.0561429 25.49245,20.7919714 C25.49245,20.5278 25.2817167,20.3129143 25.02265,20.3129143" id="Fill-8"></path>
            </g>
        </g>
    </g>
</svg>