<?xml version="1.0" encoding="UTF-8"?>
<svg width="65px" height="47px" viewBox="0 0 65 47" version="1.1" xmlns="http://www.w3.org/2000/svg" xmlns:xlink="http://www.w3.org/1999/xlink">
    <!-- Generator: Sketch 39.1 (31720) - http://www.bohemiancoding.com/sketch -->
    <title>Page 1</title>
    <desc>Created with Sketch.</desc>
    <defs></defs>
    <g id="Pages" stroke="none" stroke-width="1" fill="none" fill-rule="evenodd" stroke-linecap="round" stroke-linejoin="round">
        <g id="index_HD" transform="translate(-647.000000, -35.000000)" stroke-width="2" stroke="#77BC1F">
            <polygon id="Page-1" points="704.148 36.0005 701.333 38.7685 698.074 45.1215 696.222 45.1215 695.111 47.0655 692.296 49.3065 692.296 50.7875 690.527 52.9355 688.759 51.1575 687.296 51.5285 687.296 52.5645 682.907 54.7135 684.444 51.1575 683.481 49.8985 681.184 49.5285 680.741 50.7885 677.926 53.3815 676 53.9005 674.814 55.5325 672.888 53.6115 671.703 58.8055 668.962 56.0095 667.333 57.0835 663.259 56.1205 659.333 56.1205 660.222 52.5645 661.407 54.7135 662.963 54.4905 661.778 49.0835 660.666 49.5285 657.037 54.8615 654.741 55.9725 653.852 55.8245 651.629 58.1955 652.148 59.6025 650.518 61.8995 651.111 65.4565 651.703 68.9405 648 70.7235 651.111 78.6595 651.852 79.3475 652.815 75.6115 654.741 75.1015 655.111 71.1205 658.444 71.1205 659.999 73.5465 663.111 74.7875 663.925 72.1215 668.889 72.6395 668.962 73.6025 670.519 74.8615 671.852 74.7135 673.407 78.2685 677.481 80.2685 680.148 79.0835 681.555 79.7505 683.333 78.7135 682.592 77.8245 684.814 77.4535 686.222 78.2685 689.778 78.7115 692.74 76.4885 694.74 75.9675 694.593 71.9615 697.111 71.0625 699.333 72.8945 702.074 73.4445 703.333 71.6575 704 77.1205 705.778 77.1205 705.925 73.2875 704.519 67.2315 702.667 65.1575 701.852 66.1205 699.927 65.6765 700.743 58.7875 703.56 54.2685 703.714 49.5285 704.761 49.3065 706.486 56.3435 710.38 58.7875 709.352 54.5645 707.296 51.5285 707.296 46.9355 705.87 41.4465 704.148 41.1435 703.555 39.7935 705.185 37.6895"></polygon>
        </g>
    </g>
</svg>