<?xml version="1.0" encoding="UTF-8"?>
<svg width="78px" height="103px" viewBox="0 0 78 103" version="1.1" xmlns="http://www.w3.org/2000/svg" xmlns:xlink="http://www.w3.org/1999/xlink">
    <!-- Generator: Sketch 39.1 (31720) - http://www.bohemiancoding.com/sketch -->
    <title>Page 1 Copy 21</title>
    <desc>Created with Sketch.</desc>
    <defs></defs>
    <g id="Pages" stroke="none" stroke-width="1" fill="none" fill-rule="evenodd">
        <g id="index_HD" transform="translate(-482.000000, -1202.000000)" fill="#77BC1F">
            <g id="Group" transform="translate(30.000000, 1202.000000)">
                <g id="Page-1-Copy-21" transform="translate(452.000000, 0.000000)">
                    <g id="Group-3">
                        <path d="M72.5030809,99.6631433 L5.20121959,99.6631433 C4.16596403,99.6631433 3.32204284,98.81511 3.32204284,97.7713767 L3.32204284,5.22931 C3.32204284,4.18557667 4.16596403,3.33754333 5.20121959,3.33754333 L54.9037364,3.33754333 L54.9037364,17.6854433 C54.9037364,20.5694433 57.2373323,22.91441 60.103931,22.91441 L74.3856744,22.91441 L74.3856744,97.7713767 C74.3856744,98.81511 73.5417532,99.6631433 72.5030809,99.6631433 L72.5030809,99.6631433 Z M58.2247543,5.69624333 L72.0384118,19.57721 L60.103931,19.57721 C59.0686755,19.57721 58.2247543,18.7291767 58.2247543,17.6854433 L58.2247543,5.69624333 Z M77.2181062,20.0647433 L57.7361683,0.487876667 C57.42525,0.175443333 57.0049977,0.000343333335 56.5642453,0.000343333335 L5.20121959,0.000343333335 C2.33462087,0.000343333335 0.0010250055,2.34531 0.0010250055,5.22931 L0.0010250055,97.7713767 C0.0010250055,100.655377 2.33462087,103.000343 5.20121959,103.000343 L72.5030809,103.000343 C75.3730963,103.000343 77.7066922,100.655377 77.7066922,97.7713767 L77.7066922,21.24581 C77.7066922,20.80291 77.5290246,20.3771767 77.2181062,20.0647433 L77.2181062,20.0647433 Z" id="Fill-1"></path>
                    </g>
                    <path d="M12.286741,14.01521 L24.6858909,14.01521 C25.6015624,14.01521 26.3429831,13.2667433 26.3429831,12.34661 C26.3429831,11.4264767 25.6015624,10.67801 24.6858909,10.67801 L12.286741,10.67801 C11.3710694,10.67801 10.626232,11.4264767 10.626232,12.34661 C10.626232,13.2667433 11.3710694,14.01521 12.286741,14.01521" id="Fill-4"></path>
                    <path d="M12.286741,22.9137233 L31.7686789,22.9137233 C32.6843505,22.9137233 33.4291878,22.1652567 33.4291878,21.2451233 C33.4291878,20.32499 32.6843505,19.5765233 31.7686789,19.5765233 L12.286741,19.5765233 C11.3710694,19.5765233 10.626232,20.32499 10.626232,21.2451233 C10.626232,22.1652567 11.3710694,22.9137233 12.286741,22.9137233" id="Fill-6"></path>
                    <path d="M26.5660926,35.4828133 C26.5660926,36.4029467 27.31093,37.1514133 28.2266015,37.1514133 L49.4783823,37.1514133 C50.3974706,37.1514133 51.1388912,36.4029467 51.1388912,35.4828133 C51.1388912,34.56268 50.3974706,33.8142133 49.4783823,33.8142133 L28.2266015,33.8142133 C27.31093,33.8142133 26.5660926,34.56268 26.5660926,35.4828133" id="Fill-8"></path>
                    <path d="M65.4189262,42.7127267 L12.2860576,42.7127267 C11.370386,42.7127267 10.6255487,43.4611933 10.6255487,44.3813267 C10.6255487,45.30146 11.370386,46.0499267 12.2860576,46.0499267 L65.4189262,46.0499267 C66.3345978,46.0499267 67.0794351,45.30146 67.0794351,44.3813267 C67.0794351,43.4611933 66.3345978,42.7127267 65.4189262,42.7127267" id="Fill-10"></path>
                    <path d="M44.1661204,74.7474433 L31.7669705,74.7474433 C30.851299,74.7474433 30.1098783,75.49591 30.1098783,76.4160433 C30.1098783,77.3361767 30.851299,78.0846433 31.7669705,78.0846433 L44.1661204,78.0846433 C45.081792,78.0846433 45.8266294,77.3361767 45.8266294,76.4160433 C45.8266294,75.49591 45.081792,74.7474433 44.1661204,74.7474433" id="Fill-12"></path>
                    <path d="M44.1661204,83.6459567 L31.7669705,83.6459567 C30.851299,83.6459567 30.1098783,84.3944233 30.1098783,85.3145567 C30.1098783,86.23469 30.851299,86.9831567 31.7669705,86.9831567 L44.1661204,86.9831567 C45.081792,86.9831567 45.8266294,86.23469 45.8266294,85.3145567 C45.8266294,84.3944233 45.081792,83.6459567 44.1661204,83.6459567" id="Fill-14"></path>
                    <path d="M65.4189262,51.61124 L12.2860576,51.61124 C11.370386,51.61124 10.6255487,52.3597067 10.6255487,53.27984 C10.6255487,54.1999733 11.370386,54.94844 12.2860576,54.94844 L65.4189262,54.94844 C66.3345978,54.94844 67.0794351,54.1999733 67.0794351,53.27984 C67.0794351,52.3597067 66.3345978,51.61124 65.4189262,51.61124" id="Fill-16"></path>
                    <path d="M65.4189262,60.5097533 L12.2860576,60.5097533 C11.370386,60.5097533 10.6255487,61.25822 10.6255487,62.1783533 C10.6255487,63.0984867 11.370386,63.8469533 12.2860576,63.8469533 L65.4189262,63.8469533 C66.3345978,63.8469533 67.0794351,63.0984867 67.0794351,62.1783533 C67.0794351,61.25822 66.3345978,60.5097533 65.4189262,60.5097533" id="Fill-18"></path>
                    <path d="M58.3344298,87.2052933 C55.3448305,87.2052933 52.9121507,84.76076 52.9121507,81.7565933 C52.9121507,78.7489933 55.3448305,76.30446 58.3344298,76.30446 C61.3240292,76.30446 63.756709,78.7489933 63.756709,81.7565933 C63.756709,84.76076 61.3240292,87.2052933 58.3344298,87.2052933 M58.3344298,72.96726 C53.5134873,72.96726 49.5911329,76.9087267 49.5911329,81.7565933 C49.5911329,86.6010267 53.5134873,90.5424933 58.3344298,90.5424933 C63.1553724,90.5424933 67.0777268,86.6010267 67.0777268,81.7565933 C67.0777268,76.9087267 63.1553724,72.96726 58.3344298,72.96726" id="Fill-20"></path>
                    <path d="M58.3344298,78.75174 C56.6875877,78.75174 55.3448305,80.0976067 55.3448305,81.7559067 C55.3448305,83.4107733 56.6875877,84.75664 58.3344298,84.75664 C59.981272,84.75664 61.3240292,83.4107733 61.3240292,81.7559067 C61.3240292,80.0976067 59.981272,78.75174 58.3344298,78.75174" id="Fill-22"></path>
                </g>
            </g>
        </g>
    </g>
</svg>