<?xml version="1.0" encoding="UTF-8"?>
<svg width="24px" height="13px" viewBox="0 0 24 13" version="1.1" xmlns="http://www.w3.org/2000/svg" xmlns:xlink="http://www.w3.org/1999/xlink">
    <g id="index_HD" transform="translate(-365.000000, -1844.000000)">
        <g id="Group-12" transform="translate(-11.000000, 1794.000000)">
            <g id="Group-10" transform="translate(344.000000, 44.000000)">
                <path d="M44.8399063,18.6642975 C44.8399063,18.6642975 45.2618344,18.6198106 45.4777193,18.398587 C45.676143,18.1952185 45.6697934,17.8132975 45.6697934,17.8132975 C45.6697934,17.8132975 45.6424903,16.0253501 46.5130147,15.7620606 C47.3711574,15.5027054 48.4731231,17.490087 49.6411242,18.2542317 C50.5240302,18.832258 51.1954959,18.705758 51.1954959,18.705758 L54.3185257,18.6642975 C54.3185257,18.6642975 55.9519494,18.5680606 55.1773034,17.3439159 C55.1141253,17.2437448 54.7261673,16.4381396 52.8552702,14.7827448 C50.8967492,13.0501791 51.1593034,13.3304159 53.518164,10.3334554 C54.9547514,8.50828432 55.5290689,7.39399485 55.3496939,6.91674485 C55.1785733,6.46219221 54.1220069,6.58233695 54.1220069,6.58233695 L50.605622,6.6029159 C50.605622,6.6029159 50.3446552,6.56902116 50.1516286,6.67948169 C49.9624118,6.78721853 49.8411353,7.039008 49.8411353,7.039008 C49.8411353,7.039008 49.2845965,8.45108695 48.5426507,9.65253432 C46.9768499,12.1867712 46.350466,12.3211396 46.0945788,12.1634685 C45.4989903,11.7966791 45.6478875,10.6899554 45.6478875,9.90371853 C45.6478875,7.44756064 46.0387027,6.42345537 44.886893,6.15835011 C44.5046496,6.07028432 44.2230468,6.01217906 43.2455324,6.00279748 C41.9908598,5.99069221 40.9292138,6.00642906 40.3279107,6.28727116 C39.9275711,6.47399485 39.6189826,6.89011327 39.807247,6.91402116 C40.0396408,6.94337642 40.5660191,7.04929748 40.8447647,7.41124485 C41.2054195,7.87881064 41.1927204,8.92803432 41.1927204,8.92803432 C41.1927204,8.92803432 41.399716,11.8193764 40.7092016,12.1786001 C40.2352072,12.4249422 39.5850125,11.9219685 38.1890622,9.62257379 C37.4737846,8.44473169 36.9337547,7.14281064 36.9337547,7.14281064 C36.9337547,7.14281064 36.829622,6.89949485 36.6438974,6.76906064 C36.4184881,6.61138958 36.1038676,6.56145537 36.1038676,6.56145537 L32.7620954,6.58233695 C32.7620954,6.58233695 32.2607979,6.59565274 32.0763432,6.80356064 C31.9125246,6.98846853 32.0633266,7.37099485 32.0633266,7.37099485 C32.0633266,7.37099485 34.6793443,13.2051264 37.6414129,16.1451922 C40.3580711,18.841337 43.4420512,18.6642975 43.4420512,18.6642975 L44.8399063,18.6642975 Z" id="Fill-4"></path>
            </g>
        </g>
    </g>
</svg>