<?xml version="1.0" encoding="UTF-8"?>
<svg width="36px" height="26px" viewBox="0 0 36 26" version="1.1" xmlns="http://www.w3.org/2000/svg" xmlns:xlink="http://www.w3.org/1999/xlink">
    <!-- Generator: Sketch 39.1 (31720) - http://www.bohemiancoding.com/sketch -->
    <title>Fill 1</title>
    <desc>Created with Sketch.</desc>
    <defs></defs>
    <g id="Pages" stroke="none" stroke-width="1" fill="none" fill-rule="evenodd">
        <g id="index_HD" transform="translate(-37.000000, -292.000000)">
            <g id="Page-1" transform="translate(38.000000, 292.000000)">
                <g id="Group-3" transform="translate(0.212766, 0.637388)">
                    <g id="Fill-1">
                        <path d="M19.6728936,4.04502932 C19.6736383,4.04650509 19.674383,4.04724298 19.6751277,4.04871876 C19.674383,4.04724298 19.6736383,4.04650509 19.6728936,4.04502932 L19.6728936,4.04502932 Z M19.4115106,4.05093242 C19.4100213,4.0524082 19.4092766,4.05462186 19.4077872,4.05683553 C19.4092766,4.05462186 19.4100213,4.0524082 19.4115106,4.05093242 L19.4115106,4.05093242 Z M19.9387447,25.088125 L19.1486383,24.3059635 L30.979383,12.5772306 C32.2468298,11.3294616 32.9460851,9.66478584 32.9498085,7.88868894 C32.9527872,6.10447528 32.2550213,4.4272554 30.9845957,3.16546658 C29.7089574,1.9073672 28.0200213,1.2137523 26.2305532,1.2137523 C24.4358723,1.2137523 22.7469362,1.9073672 21.475766,3.16620447 C21.0609787,3.5772082 20.6938511,4.0583113 20.3833191,4.5962318 C20.2217234,4.89064919 19.8977872,5.07954857 19.5440638,5.07954857 C19.1895957,5.07954857 18.8664043,4.89064919 18.6981064,4.58590137 C18.3950213,4.05535975 18.0286383,3.57278087 17.611617,3.16030137 C16.3404468,1.90072621 14.6515106,1.2071113 12.8568298,1.2071113 C11.0621489,1.2071113 9.37321277,1.90072621 8.10204255,3.16030137 C6.84576596,4.40511876 6.148,6.06315354 6.13757447,7.82818211 L5.02055319,7.82227901 C5.03321277,5.76357093 5.84714894,3.82956596 7.31193617,2.37740199 C8.79459574,0.909004472 10.7635319,0.100279006 12.8568298,0.100279006 C14.9501277,0.100279006 16.9190638,0.909004472 18.4009787,2.37740199 C18.8314043,2.80316348 19.2149149,3.29090758 19.5448085,3.82809019 C19.8784255,3.28795602 20.2604468,2.80537714 20.6856596,2.38330509 C22.1683191,0.914907578 24.1372553,0.10692 26.2305532,0.10692 C28.3178936,0.10692 30.2860851,0.914907578 31.7739574,2.3825672 C33.2573617,3.85465416 34.0705532,5.81079578 34.0668298,7.89090261 C34.0623617,9.96363056 33.2461915,11.9057523 31.768,13.3608678 L19.9387447,25.088125 Z" fill="#77BC1F" fill-rule="evenodd"></path>
                        <polygon id="Stroke-4" stroke="#77BC1F" stroke-width="1" stroke-linecap="round" stroke-linejoin="round" points="2.0212766 24.0588447 5 24.0588447 5 17.4178509 2.0212766 17.4178509"></polygon>
                        <polygon id="Stroke-6" stroke="#77BC1F" stroke-width="1" stroke-linecap="round" stroke-linejoin="round" points="7.23404255 24.0588447 10.212766 24.0588447 10.212766 12.2526335 7.23404255 12.2526335"></polygon>
                        <polygon id="Stroke-7" stroke="#77BC1F" stroke-width="1" stroke-linecap="round" stroke-linejoin="round" points="13.1914894 24.0588447 16.1702128 24.0588447 16.1702128 7.82530435 13.1914894 7.82530435"></polygon>
                        <path d="M17.287234,24.0588447 L0.159574468,24.0588447" id="Stroke-8" stroke="#77BC1F" stroke-width="1" stroke-linecap="round" stroke-linejoin="round"></path>
                    </g>
                </g>
            </g>
        </g>
    </g>
</svg>