<?xml version="1.0" encoding="UTF-8"?>
<svg width="23px" height="14px" viewBox="0 0 23 14" version="1.1" xmlns="http://www.w3.org/2000/svg" xmlns:xlink="http://www.w3.org/1999/xlink">
    <g id="index_HD" transform="translate(-411.000000, -1844.000000)">
        <g id="Group-12" transform="translate(-11.000000, 1794.000000)">
            <g id="Group-10" transform="translate(344.000000, 44.000000)">
                <g id="Group-4" transform="translate(78.000000, 6.000000)">
                    <path d="M0.00450950839,7.0101953 C-0.058668589,9.9311953 2.05192433,12.7187348 4.95525951,13.62784 C7.69001393,14.5033532 11.0524221,13.8481558 12.8722053,11.6156427 C14.2008502,10.0516427 14.5024542,7.96590583 14.3586367,6.01756372 C12.0166024,5.99759004 9.67456814,6.00424793 7.33570862,6.00757688 C7.33221637,6.80289267 7.33570862,7.59518214 7.33951836,8.39049793 C8.74181814,8.42711635 10.1441179,8.41047162 11.5467352,8.43740583 C11.1927473,9.59376109 10.3863535,10.669919 9.16247632,11.0875506 C6.79948849,12.0801821 3.78408362,10.7834058 3.04086792,8.42045846 C2.14335796,6.15798477 3.61232809,3.42734004 6.03849402,2.76881372 C7.5427042,2.26432688 9.09231371,2.83236635 10.3790515,3.57774793 C11.0314686,2.99609004 11.6413436,2.37448477 12.2410593,1.74622162 C10.7790737,0.579879512 8.89960464,-0.135541541 6.96775177,0.0215242486 C3.17770088,0.0651031959 -0.139307969,3.40070846 0.00450950839,7.0101953" id="Fill-4"></path>
                    <path d="M18.1140852,3 C18.1071007,3.66518421 18.1001162,4.33339474 18.0966239,4.99857895 C17.3953153,5.00523684 16.6974989,5.00856579 16,5.01189474 L16,7.00381579 C16.6974989,7.00714474 17.3988075,7.01077632 18.0966239,7.01743421 C18.1036084,7.68231579 18.1036084,8.3475 18.1105929,9.01601316 C18.804917,9.01601316 19.5024159,9.01268421 20.2002323,9.01601316 C20.2037246,8.3475 20.2072168,7.68231579 20.2142013,7.01410526 C20.9120177,7.01077632 21.6133263,7.00714474 22.3108252,7.00381579 L22.3108252,5.01189474 C21.6133263,5.00856579 20.9120177,5.00523684 20.2142013,4.99857895 C20.2107091,4.33339474 20.2037246,3.66518421 20.2002323,3 L18.1140852,3 Z" id="Fill-6"></path>
                    <path d="M0.00450950839,7.0101953 C-0.139307969,3.40070846 3.17770088,0.0651031959 6.96775177,0.0215242486 C8.89960464,-0.135541541 10.7790737,0.579879512 12.2410593,1.74622162 C11.6413436,2.37448477 11.0314686,2.99609004 10.3790515,3.57774793 C9.09231371,2.83236635 7.5427042,2.26432688 6.03849402,2.76881372 C3.61232809,3.42734004 2.14335796,6.15798477 3.04086792,8.42045846 C3.78408362,10.7834058 6.79948849,12.0801821 9.16247632,11.0875506 C10.3863535,10.669919 11.1927473,9.59376109 11.5467352,8.43740583 C10.1441179,8.41047162 8.74181814,8.42711635 7.33951836,8.39049793 C7.33570862,7.59518214 7.33221637,6.80289267 7.33570862,6.00757688 C9.67456814,6.00424793 12.0166024,5.99759004 14.3586367,6.01756372 C14.5024542,7.96590583 14.2008502,10.0516427 12.8722053,11.6156427 C11.0524221,13.8481558 7.69001393,14.5033532 4.95525951,13.62784 C2.05192433,12.7187348 -0.058668589,9.9311953 0.00450950839,7.0101953" id="Fill-8"></path>
                    <path d="M18.1140852,3 L20.2002323,3 C20.2037246,3.66518421 20.2107091,4.33339474 20.2142013,4.99857895 C20.9120177,5.00523684 21.6133263,5.00856579 22.3108252,5.01189474 L22.3108252,7.00381579 C21.6133263,7.00714474 20.9120177,7.01077632 20.2142013,7.01410526 C20.2072168,7.68231579 20.2037246,8.3475 20.2002323,9.01601316 C19.5024159,9.01268421 18.804917,9.01601316 18.1105929,9.01601316 C18.1036084,8.3475 18.1036084,7.68231579 18.0966239,7.01743421 C17.3988075,7.01077632 16.6974989,7.00714474 16,7.00381579 L16,5.01189474 C16.6974989,5.00856579 17.3953153,5.00523684 18.0966239,4.99857895 C18.1001162,4.33339474 18.1071007,3.66518421 18.1140852,3" id="Fill-10"></path>
                </g>
            </g>
        </g>
    </g>
</svg>