<?xml version="1.0" encoding="UTF-8"?>
<svg width="34px" height="42px" viewBox="0 0 34 42" version="1.1" xmlns="http://www.w3.org/2000/svg" xmlns:xlink="http://www.w3.org/1999/xlink">
    <!-- Generator: Sketch 39.1 (31720) - http://www.bohemiancoding.com/sketch -->
    <title>Fill 1</title>
    <desc>Created with Sketch.</desc>
    <defs></defs>
    <g id="Pages" stroke="none" stroke-width="1" fill="none" fill-rule="evenodd">
        <g id="index_HD" transform="translate(-1333.000000, -35.000000)" fill="#FFFFFF">
            <g id="Page-1" transform="translate(1333.000000, 35.000000)">
                <path d="M32.31105,39.86822 C32.31105,40.29382 31.9611333,40.63962 31.5304667,40.63962 L27.8131333,40.63962 L27.8131333,38.74262 C27.8131333,38.22322 27.9987167,37.71782 28.3344667,37.31882 L31.1083,34.02882 C31.8563,34.70782 32.31105,35.67802 32.31105,36.73642 L32.31105,39.86822 L32.31105,39.86822 Z M1.37671667,39.86822 L1.37671667,36.73642 C1.37671667,35.67802 1.83146667,34.70782 2.57946667,34.02882 L5.3533,37.31882 C5.68905,37.71782 5.87463333,38.22322 5.87463333,38.74262 L5.87463333,40.63962 L2.1573,40.63962 C1.72663333,40.63962 1.37671667,40.29382 1.37671667,39.86822 L1.37671667,39.86822 Z M4.19305,33.17202 L9.2123,31.93162 L12.1618,36.01122 C12.38705,36.32482 12.7383833,36.53482 13.1237167,36.58662 C13.1874667,36.59642 13.2526333,36.60062 13.3178,36.60062 C13.6379667,36.60062 13.9553,36.49282 14.2074667,36.29262 L16.1553833,34.75262 L16.1553833,38.41642 C16.1553833,38.79302 16.4642167,39.09682 16.8438833,39.09682 C17.22355,39.09682 17.5323833,38.79302 17.5323833,38.41642 L17.5323833,34.75262 L19.4803,36.29262 C19.7324667,36.49282 20.0498,36.60062 20.3699667,36.60062 C20.4351333,36.60062 20.5003,36.59642 20.56405,36.58662 C20.9493833,36.53342 21.3007167,36.32482 21.5259667,36.01122 L24.4754667,31.93162 L29.4947167,33.17202 C29.6434667,33.20842 29.78655,33.25462 29.9253833,33.30642 L27.2762167,36.44802 C26.73505,37.09062 26.4361333,37.90542 26.4361333,38.74262 L26.4361333,40.63962 L7.25163333,40.63962 L7.25163333,38.74262 C7.25163333,37.90542 6.95271667,37.09062 6.41155,36.44802 L3.76238333,33.30642 C3.90121667,33.25462 4.04571667,33.20842 4.19305,33.17202 L4.19305,33.17202 Z M11.7098833,29.93942 C11.7268833,29.92262 11.7538,29.92122 11.7722167,29.93662 L15.7643833,33.31902 L13.34755,35.23002 C13.3433,35.23282 13.3319667,35.24262 13.3121333,35.23982 C13.2937167,35.23702 13.2852167,35.22442 13.2823833,35.22022 L10.3994667,31.23302 L11.7098833,29.93942 L11.7098833,29.93942 Z M16.8438833,28.93702 C18.1543,28.93702 19.40805,28.64022 20.5612167,28.09842 L20.5612167,29.29122 L16.8438833,32.44122 L13.12655,29.29122 L13.12655,28.09842 C14.2797167,28.63882 15.5334667,28.93702 16.8438833,28.93702 L16.8438833,28.93702 Z M3.57963333,21.72562 C3.57963333,13.44742 5.46521667,7.56742 9.18255,4.24662 C11.9932167,1.73502 15.1892167,1.36122 16.8438833,1.36122 C18.49855,1.36122 21.69455,1.73502 24.5066333,4.24662 C28.2239667,7.56742 30.1081333,13.44742 30.1081333,21.72562 C30.1081333,22.49282 28.91955,23.28102 27.33855,23.95022 C28.1446333,22.79382 28.4138,21.49882 28.50305,20.80022 C28.9648833,20.56782 29.2822167,20.09462 29.2822167,19.54862 L29.2822167,15.94782 C29.2822167,15.17222 28.6433,14.54082 27.8584667,14.54082 L26.5537167,14.54082 C26.5027167,14.52682 26.4503,14.51702 26.3964667,14.51422 C20.4436333,14.23282 11.4478,12.00962 8.81988333,10.49342 C8.64988333,10.39542 8.4473,10.37442 8.26171667,10.43322 C8.07471667,10.49202 7.92313333,10.62782 7.8438,10.80422 C7.31963333,11.96342 6.95838333,13.22062 6.76713333,14.51422 L5.8293,14.51422 C5.04446667,14.51422 4.40555,15.14422 4.40555,15.91982 L4.40555,19.54862 C4.40555,20.32422 5.04446667,20.95422 5.8293,20.95422 L7.25871667,20.95422 C7.72621667,22.45082 8.4303,23.80882 9.31571667,24.96382 C6.53196667,24.19522 3.57963333,22.93382 3.57963333,21.72562 L3.57963333,21.72562 Z M18.3129667,24.67402 C17.8823,24.67402 17.5323833,24.32822 17.5323833,23.90262 C17.5323833,23.47702 17.8823,23.13122 18.3129667,23.13122 C18.7422167,23.13122 19.09355,23.47702 19.09355,23.90262 C19.09355,24.32822 18.7422167,24.67402 18.3129667,24.67402 L18.3129667,24.67402 Z M27.9052167,19.54862 C27.9052167,19.57382 27.8839667,19.59342 27.8584667,19.59342 L26.7803833,19.59342 C26.9744667,18.64842 27.0793,17.66142 27.0793,16.64642 C27.0793,16.52322 27.07505,16.21382 27.0708,15.90162 L27.8584667,15.90162 C27.8839667,15.90162 27.9052167,15.92262 27.9052167,15.94782 L27.9052167,19.54862 Z M25.2532167,24.14482 C25.09455,24.25542 24.9288,24.35342 24.7531333,24.43882 C25.46005,23.40422 26.0309667,22.22962 26.42905,20.95422 L27.0863833,20.95422 C26.9319667,21.81662 26.4913833,23.27542 25.2532167,24.14482 L25.2532167,24.14482 Z M6.90738333,19.59342 L5.8293,19.59342 C5.8038,19.59342 5.78255,19.57382 5.78255,19.54862 L5.78255,15.91982 C5.78255,15.89462 5.8038,15.87502 5.8293,15.87502 L6.62971667,15.87502 C6.61555,16.13122 6.60846667,16.38882 6.60846667,16.64642 C6.60846667,17.66142 6.7133,18.64842 6.90738333,19.59342 L6.90738333,19.59342 Z M7.98546667,16.64642 C7.98546667,15.05322 8.27446667,13.46982 8.82413333,12.02642 C10.3768,12.74882 12.9622167,13.56642 15.9839667,14.28042 C19.4264667,15.09382 22.91855,15.65242 25.6923833,15.83722 C25.69805,16.15922 25.7023,16.50642 25.7023,16.64642 C25.7023,19.92662 24.52505,22.87362 22.6649667,24.87842 C21.9722167,24.88122 21.2043833,24.77482 20.3643,24.55922 C20.4323,24.35202 20.47055,24.13222 20.47055,23.90262 C20.47055,22.72802 19.50155,21.77042 18.3129667,21.77042 C17.1229667,21.77042 16.1553833,22.72802 16.1553833,23.90262 C16.1553833,25.07862 17.1229667,26.03482 18.3129667,26.03482 C18.72805,26.03482 19.1162167,25.91722 19.4463,25.71562 C20.0738833,25.90462 20.67455,26.04182 21.2468833,26.12862 C19.9492167,27.04982 18.4447167,27.57622 16.8438833,27.57622 C11.9592167,27.57622 7.98546667,22.67342 7.98546667,16.64642 L7.98546667,16.64642 Z M21.9778833,29.93942 L23.2883,31.23302 L20.4068,35.22022 C20.40255,35.22442 20.3954667,35.23702 20.3756333,35.23982 C20.3558,35.24122 20.3444667,35.23282 20.3402167,35.23002 L17.9233833,33.31902 L21.91555,29.93662 C21.9339667,29.92122 21.9608833,29.92262 21.9778833,29.93942 L21.9778833,29.93942 Z M29.82905,31.85182 L24.5392167,30.54562 L22.95255,28.97622 C22.6748833,28.70322 22.30655,28.56742 21.9382167,28.56882 L21.9382167,27.30322 C22.17905,27.13802 22.4113833,26.95882 22.6394667,26.77122 C22.9242167,26.71522 24.8806333,26.31622 26.87105,25.60082 C29.9749667,24.48362 31.4851333,23.21662 31.4851333,21.72562 C31.4851333,13.04702 29.4479667,6.82682 25.4288833,3.23722 C22.2768,0.42042 18.6968833,0.00042 16.8438833,0.00042 C14.9908833,0.00042 11.4123833,0.42042 8.25888333,3.23722 C4.2398,6.82682 2.20263333,13.04702 2.20263333,21.72562 C2.20263333,23.21662 3.7128,24.48362 6.81671667,25.60082 C8.80713333,26.31622 10.76355,26.71522 11.0483,26.77122 C11.2763833,26.95882 11.5101333,27.13802 11.74955,27.30322 L11.74955,28.56882 C11.3812167,28.56742 11.0128833,28.70322 10.7366333,28.97622 L9.14855,30.54562 L3.85871667,31.85182 C1.58638333,32.41322 -0.000283333334,34.42222 -0.000283333334,36.73642 L-0.000283333334,39.86822 C-0.000283333334,41.04422 0.9673,42.00042 2.1573,42.00042 L31.5304667,42.00042 C32.7204667,42.00042 33.68805,41.04422 33.68805,39.86822 L33.68805,36.73642 C33.68805,34.42222 32.1013833,32.41322 29.82905,31.85182 L29.82905,31.85182 Z" id="Fill-1"></path>
            </g>
        </g>
    </g>
</svg>