<?xml version="1.0" encoding="UTF-8"?>
<svg width="21px" height="17px" viewBox="0 0 21 17" version="1.1" xmlns="http://www.w3.org/2000/svg" xmlns:xlink="http://www.w3.org/1999/xlink">
        <g id="index_HD" transform="translate(-455.000000, -1842.000000)">
            <g id="Group-12" transform="translate(-11.000000, 1794.000000)">
                <g id="Group-10" transform="translate(344.000000, 44.000000)">
                    <path d="M142.749402,5.90294737 C141.986185,6.22555263 141.165187,6.44405263 140.304187,6.5415 C141.182966,6.03943421 141.857924,5.24472368 142.176354,4.29688158 C141.353769,4.76202632 140.44229,5.09946053 139.47303,5.28134211 C138.696479,4.49298684 137.590069,4 136.364921,4 C134.014315,4 132.107861,5.81730263 132.107861,8.05798684 C132.107861,8.37635526 132.14564,8.68594737 132.21866,8.98282895 C128.680687,8.81365789 125.543688,7.19821053 123.443889,4.74265789 C123.07752,5.34186842 122.86735,6.03943421 122.86735,6.783 C122.86735,8.19053947 123.619455,9.43284211 124.761423,10.1606711 C124.063606,10.1394868 123.406744,9.95730263 122.833379,9.65285526 C122.832744,9.66980263 122.832744,9.68735526 122.832744,9.704 C122.832744,11.6701974 124.300762,13.3101579 126.247854,13.6826974 C125.891009,13.7759079 125.51448,13.8255395 125.126522,13.8255395 C124.851586,13.8255395 124.585222,13.8001184 124.325525,13.7529079 C124.867143,15.3647237 126.438976,16.5380263 128.302253,16.5707105 C126.84503,17.6595789 125.00969,18.3081184 123.014659,18.3081184 C122.671783,18.3081184 122.332082,18.2890526 122,18.2512237 C123.882961,19.4030395 126.12118,20.0748816 128.525123,20.0748816 C136.355397,20.0748816 140.637539,13.8915132 140.637539,8.52827632 C140.637539,8.35244737 140.633412,8.17752632 140.625157,8.00351316 C141.457267,7.43153947 142.178894,6.71672368 142.749402,5.90294737" id="Fill-4"></path>
                </g>
            </g>
        </g>
</svg>