<?xml version="1.0" encoding="UTF-8"?>
<svg width="31px" height="26px" viewBox="0 0 31 26" version="1.1" xmlns="http://www.w3.org/2000/svg" xmlns:xlink="http://www.w3.org/1999/xlink">
    <!-- Generator: Sketch 39.1 (31720) - http://www.bohemiancoding.com/sketch -->
    <title>Fill 1</title>
    <desc>Created with Sketch.</desc>
    <defs></defs>
    <g id="Pages" stroke="none" stroke-width="1" fill="none" fill-rule="evenodd">
        <g id="index_HD" transform="translate(-346.000000, -295.000000)" fill="#77BC1F">
            <g id="Page-1" transform="translate(345.000000, 295.000000)">
                <g id="Group-3" transform="translate(0.476190, 0.641680)">
                    <g id="Fill-1">
                        <path d="M17.0815738,4.07226857 C17.0823119,4.07375429 17.08305,4.07449714 17.0837881,4.07598286 C17.08305,4.07449714 17.0823119,4.07375429 17.0815738,4.07226857 L17.0815738,4.07226857 Z M16.8225024,4.07821143 C16.8210262,4.07969714 16.8202881,4.08192571 16.8188119,4.08415429 C16.8202881,4.08192571 16.8210262,4.07969714 16.8225024,4.07821143 L16.8225024,4.07821143 Z M17.3450738,25.2570686 L16.5619548,24.46964 L28.2880738,12.6619257 C29.5443119,11.4057543 30.2373833,9.72986857 30.2410738,7.94181143 C30.2440262,6.14558286 29.552431,4.45706857 28.2932405,3.18678286 C27.0288833,1.92021143 25.3548833,1.22192571 23.5812405,1.22192571 C21.802431,1.22192571 20.128431,1.92021143 18.8685024,3.18752571 C18.4573833,3.60129714 18.0935024,4.08564 17.7857167,4.62718286 C17.6248119,4.92358286 17.3044786,5.11375429 16.9538833,5.11375429 C16.60255,5.11375429 16.2814786,4.92358286 16.1154071,4.61678286 C15.8150024,4.08266857 15.4518595,3.59684 15.0385262,3.18158286 C13.7785976,1.91352571 12.1045976,1.21524 10.3257881,1.21524 C8.54697857,1.21524 6.87297857,1.91352571 5.61305,3.18158286 C4.39740714,4.40506857 3.70655,6.03341143 3.66743095,7.76724 L2.5602881,7.74124 C2.6067881,5.71992571 3.4127881,3.82044 4.82993095,2.39341143 C6.29947857,0.915125714 8.25100238,0.100954286 10.3257881,0.100954286 C12.4005738,0.100954286 14.3520976,0.915125714 15.8209071,2.39341143 C16.2475262,2.82204 16.6276452,3.31306857 16.9546214,3.85386857 C17.2852881,3.31009714 17.663931,2.82426857 18.0853833,2.39935429 C19.554931,0.921068571 21.5064548,0.10764 23.5812405,0.10764 C25.6501214,0.10764 27.6009071,0.921068571 29.0756214,2.39861143 C30.5459071,3.88061143 31.3519071,5.84992571 31.3482167,7.94404 C31.3437881,10.0307257 30.5348357,11.9859257 29.0697167,13.45084 L17.3450738,25.2570686 Z"></path>
                        <g id="Fill-4" transform="translate(0.523810, 10.358320)">
                            <path d="M10.9607143,8.48128 L14.8172619,8.48128 L14.8172619,5.21270857 L10.9607143,5.21270857 L10.9607143,8.48128 Z M13.8208333,11.8152229 C13.8208333,12.2728229 13.4510476,12.6449943 12.996381,12.6449943 L0.676833333,12.6449943 L0.676833333,1.04825143 L12.996381,1.04825143 C13.4510476,1.04825143 13.8208333,1.42042286 13.8208333,1.87802286 L13.8208333,4.53150857 L10.6219286,4.53150857 C10.4351905,4.53150857 10.283881,4.68379429 10.283881,4.87173714 L10.283881,8.82150857 C10.283881,9.00945143 10.4351905,9.16173714 10.6219286,9.16173714 L13.8208333,9.16173714 L13.8208333,11.8152229 L13.8208333,11.8152229 Z M11.7497381,0.367051429 L11.7239048,0.367051429 L11.7497381,0.367051429 Z M1.21195238,0.367051429 L0.338047619,0.367051429 C0.151309524,0.367051429 0,0.52008 0,0.708022857 L0,12.9859657 C0,13.1739086 0.151309524,13.3261943 0.338047619,13.3261943 L12.996381,13.3261943 C13.8237857,13.3261943 14.4976667,12.6487086 14.4976667,11.8152229 L14.4976667,9.16173714 L15.1553095,9.16173714 C15.3420476,9.16173714 15.4933571,9.00945143 15.4933571,8.82150857 L15.4933571,4.87173714 C15.4933571,4.68379429 15.3420476,4.53150857 15.1553095,4.53150857 L14.4976667,4.53150857 L14.4976667,1.87802286 C14.4976667,1.04528 13.8237857,0.367051429 12.996381,0.367051429 L12.6066667,0.367051429 L1.21195238,0.367051429 Z"></path>
                            <path d="M12.8888405,6.50624571 C13.0755786,6.50624571 13.2268881,6.65927429 13.2268881,6.84647429 C13.2268881,7.03441714 13.0755786,7.18744571 12.8888405,7.18744571 C12.7021024,7.18744571 12.5507929,7.03441714 12.5507929,6.84647429 C12.5507929,6.65927429 12.7021024,6.50624571 12.8888405,6.50624571 M12.8888405,7.86790286 C13.4483167,7.86790286 13.9037214,7.41030286 13.9037214,6.84647429 C13.9037214,6.28338857 13.4483167,5.82504571 12.8888405,5.82504571 C12.3293643,5.82504571 11.8739595,6.28338857 11.8739595,6.84647429 C11.8739595,7.41030286 12.3293643,7.86790286 12.8888405,7.86790286" id="Fill-6"></path>
                        </g>
                    </g>
                </g>
            </g>
        </g>
    </g>
</svg>