<svg id="SvgjsSvg1011" xmlns="http://www.w3.org/2000/svg" version="1.1" xmlns:xlink="http://www.w3.org/1999/xlink"
     xmlns:svgjs="http://svgjs.com/svgjs" width="29.000000000000007" height="25.20628437472385"
     viewBox="0 0 29.000000000000007 25.20628437472385">

    <path id="SvgjsPath1013"
          d="M64.43 198.01C62.50000000000001 198.01 60.70000000000001 198.75 59.330000000000005 200.12C58.88 200.57 58.49 201.09 58.160000000000004 201.66C58.09 201.79 57.96 201.87 57.81 201.87C57.67 201.87 57.53 201.79 57.46 201.66C57.13 201.07999999999998 56.74 200.56 56.29 200.10999999999999C54.93 198.74999999999997 53.12 197.99999999999997 51.2 197.99999999999997C49.28 197.99999999999997 47.470000000000006 198.74999999999997 46.11 200.10999999999999C43.3 202.92 43.3 207.48999999999998 46.11 210.29999999999998C46.11 210.29999999999998 55.99 220.19 57.81 221.99999999999997L69.51 210.28999999999996C72.33 207.49999999999997 72.33 202.92999999999995 69.52000000000001 200.11999999999998C68.16000000000001 198.75999999999996 66.35000000000001 198.00999999999996 64.43 198.00999999999996Z "
          fill-opacity="0" fill="#ffffff" stroke-dasharray="0" stroke-linejoin="miter" stroke-linecap="butt"
          stroke-opacity="1" stroke-miterlimit="50" stroke-width="1"
          transform="matrix(1,0,0,1,-43.49999999999999,-197.39685781263807)"></path>
</svg>