<?xml version="1.0" encoding="UTF-8"?>
<svg width="33px" height="19px" viewBox="0 0 33 19" version="1.1" xmlns="http://www.w3.org/2000/svg" xmlns:xlink="http://www.w3.org/1999/xlink">
    <defs>
        <polygon id="path-1" points="0 18.4810534 32.9035018 18.4810534 32.9035018 0.471944278 0 0.471944278"></polygon>
    </defs>
    <g id="Pages" fill-rule="evenodd">
        <g id="index_HD" transform="translate(-346.000000, -229.000000)">
            <g id="Page-1-Copy-12" transform="translate(346.000000, 229.000000)">
                <g id="Fill-1">
                    <path d="M6.80752066,15.6556386 C6.41158791,15.6556386 6.0902353,15.3398595 6.0902353,14.9507938 C6.0902353,14.5617281 6.41158791,14.2459489 6.80752066,14.2459489 C7.2034534,14.2459489 7.52480602,14.5617281 7.52480602,14.9507938 C7.52480602,15.3398595 7.2034534,15.6556386 6.80752066,15.6556386 M6.80752066,13.1919149 C5.82043071,13.1919149 5.01759755,13.9808238 5.01759755,14.9507938 C5.01759755,15.9207638 5.82043071,16.7085949 6.80752066,16.7085949 C7.79461061,16.7085949 8.59744376,15.919686 8.59744376,14.9507938 C8.59744376,13.9808238 7.79461061,13.1919149 6.80752066,13.1919149" fill-rule="evenodd"></path>
                    <path d="M25.5150687,15.6556386 C25.1191359,15.6556386 24.7977833,15.3398595 24.7977833,14.9507938 C24.7977833,14.5617281 25.1191359,14.2459489 25.5150687,14.2459489 C25.9110014,14.2459489 26.2323541,14.5617281 26.2323541,14.9507938 C26.2323541,15.3398595 25.9110014,15.6556386 25.5150687,15.6556386 M25.5150687,13.1919149 C24.5279787,13.1919149 23.7251456,13.9808238 23.7251456,14.9507938 C23.7251456,15.9207638 24.5279787,16.7085949 25.5150687,16.7085949 C26.5021586,16.7085949 27.3049918,15.919686 27.3049918,14.9507938 C27.3049918,13.9808238 26.5021586,13.1919149 25.5150687,13.1919149" id="Fill-3" fill-rule="evenodd"></path>
                    <mask id="mask-2">
                        <use xlink:href="#path-1"></use>
                    </mask>
                    <g id="Clip-6"></g>
                    <path d="M29.0904182,14.6189563 C29.0695796,14.3990964 29.0279025,14.185703 28.9675803,13.9787761 L31.5197562,13.9787761 L31.4451761,14.6189563 L29.0904182,14.6189563 Z M25.514959,11.4212886 C24.3008384,11.4212886 23.2271039,12.0172813 22.5767213,12.9258198 L13.0381421,12.9258198 C12.7420151,12.9258198 12.5018232,13.1618458 12.5018232,13.4517591 C12.5018232,13.7427501 12.7420151,13.9787761 13.0381421,13.9787761 L22.0634345,13.9787761 C22.0031123,14.185703 21.9603384,14.3990964 21.9394999,14.6189563 L10.3828701,14.6189563 C10.2117745,12.8277451 8.67410775,11.4212886 6.80741098,11.4212886 C5.59329035,11.4212886 4.51955584,12.0172813 3.86917324,12.9258198 L1.07241839,12.9258198 L1.07241839,9.31537604 C1.07241839,8.79267 1.4299643,8.32708442 1.94325108,8.18482216 C3.49627259,7.75480214 4.72684473,6.5380287 5.1545837,5.00978712 L5.22258323,4.76729463 C5.75780534,2.85860928 7.53895431,1.52543944 9.55371457,1.52543944 L18.2368158,1.52543944 C19.354421,1.52543944 20.4128008,2.10634368 20.9984741,3.04182583 L23.6877458,7.33771505 C23.7743904,7.47566633 23.9202604,7.56619686 24.0836786,7.58451852 L29.1255147,8.15033433 C30.2683455,8.27966366 31.1940165,9.01684084 31.6031105,9.99651051 L29.9294446,9.99651051 C29.6333176,9.99651051 29.3931257,10.2314588 29.3931257,10.5224498 C29.3931257,10.8134408 29.6333176,11.0494668 29.9294446,11.0494668 L31.8290444,11.0494668 C31.8323347,11.1884958 31.8279476,11.3286026 31.8114961,11.4708649 L31.6425941,12.9258198 L28.4542935,12.9258198 C27.8039109,12.0172813 26.7290796,11.4212886 25.514959,11.4212886 L25.514959,11.4212886 Z M25.514959,17.4264805 C24.1253557,17.4264805 22.9956861,16.3164037 22.9956861,14.9509016 C22.9956861,13.5853994 24.1253557,12.4742449 25.514959,12.4742449 C26.9045623,12.4742449 28.0342319,13.5853994 28.0342319,14.9509016 C28.0342319,16.3164037 26.9045623,17.4264805 25.514959,17.4264805 L25.514959,17.4264805 Z M6.80741098,17.4264805 C5.41780769,17.4264805 4.28813808,16.3164037 4.28813808,14.9509016 C4.28813808,13.5853994 5.41780769,12.4742449 6.80741098,12.4742449 C8.19701427,12.4742449 9.32668388,13.5853994 9.32668388,14.9509016 C9.32668388,16.3164037 8.19701427,17.4264805 6.80741098,17.4264805 L6.80741098,17.4264805 Z M1.07241839,13.9787761 L3.35588647,13.9787761 C3.2955643,14.185703 3.25279041,14.3990964 3.23195184,14.6189563 L1.07241839,14.6189563 L1.07241839,13.9787761 Z M29.2472558,7.10384451 L24.4642566,6.56712779 L21.9120807,2.49002069 C21.1322796,1.24522589 19.7240313,0.471405405 18.2368158,0.471405405 L9.55371457,0.471405405 C7.05747377,0.471405405 4.85187612,2.12358759 4.18942909,4.48815883 L4.12142956,4.72957357 C3.79239958,5.90539273 2.84588999,6.84087487 1.65260792,7.17174241 C0.679775944,7.44117851 -0.000219353322,8.32277344 -0.000219353322,9.31537604 L-0.000219353322,15.1459733 C-0.000219353322,15.4369643 0.239972534,15.6719126 0.536099518,15.6719126 L3.29117724,15.6719126 C3.63117489,17.2734408 5.07890681,18.4805145 6.80741098,18.4805145 C8.53591516,18.4805145 9.98364708,17.2734408 10.3236447,15.6719126 L21.9987253,15.6719126 C22.3387229,17.2734408 23.7864548,18.4805145 25.514959,18.4805145 C27.2434632,18.4805145 28.6911951,17.2734408 29.0311928,15.6719126 L31.9233663,15.6719126 C32.1964612,15.6719126 32.4256854,15.4714521 32.4563949,15.2052492 L32.8764565,11.5894168 C33.1341966,9.37034101 31.5054982,7.35819219 29.2472558,7.10384451 L29.2472558,7.10384451 Z" id="Fill-5" fill-rule="evenodd" mask="url(#mask-2)"></path>
                    <path d="M18.264893,8.42440474 L17.1385137,8.42440474 C16.8423867,8.42440474 16.6021949,8.66043076 16.6021949,8.95142176 C16.6021949,9.24241275 16.8423867,9.47736103 17.1385137,9.47736103 L18.264893,9.47736103 C18.56102,9.47736103 18.8012119,9.24241275 18.8012119,8.95142176 C18.8012119,8.66043076 18.56102,8.42440474 18.264893,8.42440474" id="Fill-8" fill-rule="evenodd" mask="url(#mask-2)"></path>
                    <path d="M11.0665944,8.95120621 C11.0665944,8.66021522 10.8264025,8.42418919 10.5302756,8.42418919 L9.40389625,8.42418919 C9.10776927,8.42418919 8.86867414,8.66021522 8.86867414,8.95120621 C8.86867414,9.2421972 9.10776927,9.47822322 9.40389625,9.47822322 L10.5302756,9.47822322 C10.8264025,9.47822322 11.0665944,9.2421972 11.0665944,8.95120621" id="Fill-10" fill-rule="evenodd" mask="url(#mask-2)"></path>
                    <path d="M11.7305769,13.2505442 C11.636255,13.0317621 11.3971599,12.8948886 11.156968,12.9315319 C10.9387114,12.9649419 10.762132,13.1255259 10.7127775,13.3367638 C10.6063912,13.7937274 11.1460003,14.149383 11.537546,13.8864134 C11.7448349,13.7484621 11.8259956,13.4779483 11.7305769,13.2505442 C11.7174157,13.2192896 11.7437381,13.2828765 11.7305769,13.2505442" id="Fill-12" fill-rule="evenodd" mask="url(#mask-2)"></path>
                    <path d="M15.3194166,6.53468769 L15.3194166,3.22170137 L18.2368158,3.22170137 C18.7599735,3.22170137 19.2546152,3.49329296 19.5277101,3.93085719 L21.1575053,6.53468769 L15.3194166,6.53468769 Z M6.82057218,5.45909877 L6.88747494,5.21768402 C7.0925703,4.48805105 7.59269587,3.89421388 8.23978817,3.55041341 L8.23978817,6.53468769 L6.5343161,6.53468769 C6.62534772,6.18442075 6.73502439,5.76302269 6.82057218,5.45909877 L6.82057218,5.45909877 Z M14.2478756,3.22170137 L14.2478756,6.53468769 L9.31242591,6.53468769 L9.31242591,3.23247881 C9.39139311,3.22601235 9.47255384,3.22170137 9.55371457,3.22170137 L14.2478756,3.22170137 L14.2478756,3.22170137 Z M20.4413167,3.3801298 C19.9740941,2.63325292 19.1295838,2.16874508 18.2368158,2.16874508 L9.55371457,2.16874508 C7.83179099,2.16874508 6.31057571,3.30792092 5.8543208,4.93854821 L5.78632127,5.17996296 C5.61083861,5.8093657 5.33884049,6.8892656 5.32677606,6.93560861 C5.28729246,7.09295929 5.32458253,7.25893193 5.42548506,7.38610577 C5.52748435,7.51327961 5.68322521,7.58872172 5.8477402,7.58872172 L22.1171761,7.58872172 C22.3113038,7.58872172 22.4900767,7.48525826 22.5843986,7.31820787 C22.6798173,7.15223524 22.6754303,6.94854154 22.573431,6.78580214 L20.4413167,3.3801298 Z" id="Fill-14" fill-rule="evenodd" mask="url(#mask-2)"></path>
                </g>
            </g>
        </g>
    </g>
</svg>