<svg id="SvgjsSvg1008" xmlns="http://www.w3.org/2000/svg" version="1.1" xmlns:xlink="http://www.w3.org/1999/xlink" xmlns:svgjs="http://svgjs.com/svgjs" width="63" height="24" viewBox="0 0 63 24"><title>Fill 1</title><desc>Created with Avocode.</desc><defs id="SvgjsDefs1009"></defs><path id="SvgjsPath1010" d="M170.22 52.25L171.60999999999999 52.25C172.26 52.25 172.77999999999997 52.16 173.14 51.97C173.51 51.78 173.79 51.519999999999996 173.98 51.18C174.17 50.839999999999996 174.29 50.44 174.32999999999998 49.98C174.36999999999998 49.519999999999996 174.39 49.01 174.39 48.47C174.39 47.9 174.35999999999999 47.4 174.29999999999998 46.98C174.23 46.559999999999995 174.1 46.209999999999994 173.89999999999998 45.919999999999995C173.7 45.63999999999999 173.42 45.42999999999999 173.05999999999997 45.279999999999994C172.70999999999998 45.129999999999995 172.22999999999996 45.059999999999995 171.64 45.059999999999995L170.22 45.059999999999995ZM170.22 42.22L171.68 42.22C172.75 42.22 173.47 41.949999999999996 173.84 41.41C174.21 40.87 174.39000000000001 40.089999999999996 174.39000000000001 39.059999999999995C174.39000000000001 38.05 174.19000000000003 37.28999999999999 173.78 36.78999999999999C173.37 36.279999999999994 172.62 36.029999999999994 171.55 36.029999999999994L170.22 36.029999999999994ZM167 33L171.71 33C172.74 33 173.62 33.16 174.34 33.47C175.07 33.79 175.67000000000002 34.21 176.13 34.74C176.59 35.260000000000005 176.92 35.870000000000005 177.12 36.550000000000004C177.32 37.230000000000004 177.42000000000002 37.95 177.42000000000002 38.68000000000001L177.42000000000002 39.50000000000001C177.42000000000002 40.11000000000001 177.38000000000002 40.63000000000001 177.28000000000003 41.050000000000004C177.19000000000003 41.470000000000006 177.05000000000004 41.84 176.86000000000004 42.150000000000006C176.67000000000004 42.470000000000006 176.43000000000004 42.75000000000001 176.16000000000005 42.99000000000001C175.89000000000004 43.23000000000001 175.57000000000005 43.46000000000001 175.21000000000006 43.67000000000001C175.97000000000006 44.03000000000001 176.53000000000006 44.56000000000001 176.89000000000007 45.26000000000001C177.24000000000007 45.97000000000001 177.42000000000007 46.91000000000001 177.42000000000007 48.09000000000001L177.42000000000007 49.35000000000001C177.42000000000007 51.330000000000005 176.94000000000008 52.84000000000001 175.99000000000007 53.89000000000001C175.03000000000006 54.95000000000001 173.50000000000006 55.470000000000006 171.39000000000007 55.470000000000006L167.00000000000009 55.470000000000006Z " fill="#000000" fill-opacity="1" transform="matrix(1,0,0,1,-167,-32)"></path><path id="SvgjsPath1011" d="M191.42 50.42C191.42 51.160000000000004 191.29 51.84 191.01 52.47C190.73999999999998 53.11 190.37 53.66 189.89 54.129999999999995C189.42 54.599999999999994 188.86999999999998 54.98 188.23 55.24999999999999C187.6 55.519999999999996 186.92999999999998 55.65999999999999 186.20999999999998 55.65999999999999C185.49999999999997 55.65999999999999 184.82 55.51999999999999 184.18999999999997 55.24999999999999C183.55999999999997 54.97999999999999 183.00999999999996 54.599999999999994 182.52999999999997 54.129999999999995C182.05999999999997 53.66 181.67999999999998 53.10999999999999 181.40999999999997 52.47C181.13999999999996 51.839999999999996 180.99999999999997 51.16 180.99999999999997 50.42L180.99999999999997 33L184.21999999999997 33L184.21999999999997 50.11C184.21999999999997 50.91 184.40999999999997 51.5 184.78999999999996 51.87C185.16999999999996 52.25 185.63999999999996 52.44 186.20999999999995 52.44C186.77999999999994 52.44 187.24999999999994 52.25 187.62999999999994 51.87C188.00999999999993 51.5 188.19999999999993 50.91 188.19999999999993 50.11L188.19999999999993 33L191.41999999999993 33Z " fill="#000000" fill-opacity="1" transform="matrix(1,0,0,1,-167,-32)"></path><path id="SvgjsPath1012" d="M194 33L197.22 33L197.22 52.25L203.6 52.25L203.6 55.47L194 55.47Z " fill="#000000" fill-opacity="1" transform="matrix(1,0,0,1,-167,-32)"></path><path id="SvgjsPath1013" d="M207 33L210.22 33L210.22 52.25L216.6 52.25L216.6 55.47L207 55.47Z " fill="#000000" fill-opacity="1" transform="matrix(1,0,0,1,-167,-32)"></path><path id="SvgjsPath1014" d="M222.22 49.36C222.22 50.14 222.44 50.71 222.87 51.08C223.3 51.449999999999996 223.81 51.629999999999995 224.4 51.629999999999995C224.99 51.629999999999995 225.5 51.449999999999996 225.93 51.08C226.36 50.71 226.58 50.14 226.58 49.36L226.58 37.49C226.58 36.71 226.36 36.14 225.93 35.77C225.5 35.400000000000006 224.99 35.220000000000006 224.4 35.220000000000006C223.81 35.220000000000006 223.3 35.400000000000006 222.87 35.77C222.44 36.14 222.22 36.71 222.22 37.49ZM219 37.49C219 36.59 219.16 35.79 219.47 35.09C219.79 34.400000000000006 220.21 33.830000000000005 220.72 33.370000000000005C221.24 32.92 221.82 32.580000000000005 222.46 32.35C223.1 32.120000000000005 223.75 32 224.4 32C225.05 32 225.70000000000002 32.12 226.34 32.35C226.99 32.58 227.57 32.92 228.08 33.370000000000005C228.60000000000002 33.830000000000005 229.01000000000002 34.400000000000006 229.33 35.09C229.65 35.790000000000006 229.8 36.59 229.8 37.49L229.8 49.36C229.8 50.29 229.65 51.089999999999996 229.33 51.769999999999996C229.01000000000002 52.459999999999994 228.60000000000002 53.029999999999994 228.08 53.48C227.57000000000002 53.93 226.99 54.269999999999996 226.34 54.5C225.70000000000002 54.74 225.05 54.85 224.4 54.85C223.75 54.85 223.1 54.74 222.46 54.5C221.82000000000002 54.27 221.24 53.93 220.72 53.48C220.21 53.029999999999994 219.79 52.459999999999994 219.47 51.769999999999996C219.16 51.089999999999996 219 50.29 219 49.36Z " fill="#000000" fill-opacity="1" transform="matrix(1,0,0,1,-167,-32)"></path></svg>