<svg id="SvgjsSvg1015" xmlns="http://www.w3.org/2000/svg" version="1.1" xmlns:xlink="http://www.w3.org/1999/xlink" xmlns:svgjs="http://svgjs.com/svgjs" width="51" height="23" viewBox="0 0 51 23"><title>Fill 12</title><desc>Created with Avocode.</desc><defs id="SvgjsDefs1016"></defs><path id="SvgjsPath1017" d="M246.06 39.66L242.83 39.66L242.83 38.93C242.83 38.2 242.66000000000003 37.56 242.31 37.02C241.97 36.49 241.38 36.220000000000006 240.56 36.220000000000006C240.12 36.220000000000006 239.75 36.300000000000004 239.47 36.470000000000006C239.19 36.64000000000001 238.96 36.86000000000001 238.81 37.120000000000005C238.65 37.38 238.54 37.690000000000005 238.47 38.03C238.41 38.38 238.38 38.74 238.38 39.120000000000005C238.38 39.56 238.4 39.940000000000005 238.43 40.24C238.46 40.550000000000004 238.54000000000002 40.81 238.66 41.03C238.79 41.25 238.97 41.45 239.22 41.620000000000005C239.46 41.790000000000006 239.79 41.95 240.21 42.120000000000005L242.68 43.1C243.39000000000001 43.370000000000005 243.97 43.690000000000005 244.41 44.06C244.85999999999999 44.43 245.2 44.86 245.44 45.36C245.68 45.85 245.85 46.42 245.93 47.06C246.01000000000002 47.7 246.06 48.43 246.06 49.25C246.06 50.2 245.96 51.08 245.77 51.89C245.58 52.7 245.27 53.39 244.84 53.97C244.41 54.55 243.83 55.01 243.12 55.35C242.4 55.68 241.53 55.85 240.5 55.85C239.72 55.85 238.99 55.71 238.32 55.440000000000005C237.64 55.17 237.06 54.790000000000006 236.57999999999998 54.32000000000001C236.08999999999997 53.85000000000001 235.70999999999998 53.28000000000001 235.42999999999998 52.63000000000001C235.14 51.98000000000001 234.99999999999997 51.27000000000001 234.99999999999997 50.52000000000001L234.99999999999997 49.32000000000001L238.21999999999997 49.32000000000001L238.21999999999997 50.330000000000005C238.21999999999997 50.92000000000001 238.39999999999998 51.45 238.73999999999998 51.92000000000001C239.08999999999997 52.39000000000001 239.67999999999998 52.63000000000001 240.49999999999997 52.63000000000001C241.03999999999996 52.63000000000001 241.46999999999997 52.55000000000001 241.77999999999997 52.39000000000001C242.07999999999998 52.24000000000001 242.30999999999997 52.02000000000001 242.46999999999997 51.73000000000001C242.62999999999997 51.45000000000001 242.72999999999996 51.10000000000001 242.76999999999998 50.67000000000001C242.80999999999997 50.25000000000001 242.82999999999998 49.790000000000006 242.82999999999998 49.290000000000006C242.82999999999998 48.7 242.80999999999997 48.21000000000001 242.76999999999998 47.830000000000005C242.73 47.46000000000001 242.64 47.150000000000006 242.49999999999997 46.92000000000001C242.35999999999999 46.69000000000001 242.17999999999998 46.50000000000001 241.92999999999998 46.35000000000001C241.68999999999997 46.20000000000001 241.36999999999998 46.05000000000001 240.96999999999997 45.88000000000001L238.65999999999997 44.93000000000001C237.26999999999998 44.36000000000001 236.33999999999997 43.61000000000001 235.86999999999998 42.67000000000001C235.39 41.74000000000001 235.15999999999997 40.56000000000001 235.15999999999997 39.150000000000006C235.15999999999997 38.31 235.26999999999998 37.510000000000005 235.50999999999996 36.760000000000005C235.73999999999995 36.00000000000001 236.07999999999996 35.35000000000001 236.52999999999997 34.800000000000004C236.97999999999996 34.25000000000001 237.55999999999997 33.82000000000001 238.24999999999997 33.49C238.94999999999996 33.160000000000004 239.75999999999996 33 240.68999999999997 33C241.48999999999998 33 242.21999999999997 33.15 242.87999999999997 33.44C243.53999999999996 33.739999999999995 244.10999999999996 34.129999999999995 244.58999999999997 34.61C245.05999999999997 35.089999999999996 245.42 35.64 245.67999999999998 36.24C245.92999999999998 36.830000000000005 246.05999999999997 37.45 246.05999999999997 38.080000000000005Z " fill="#77bc1f" fill-opacity="1" transform="matrix(1,0,0,1,-235,-33)"></path><path id="SvgjsPath1018" d="M254.38 39.47L254.32 39.47L252.73999999999998 47.61L255.95999999999998 47.61ZM253.02 33L255.71 33L260.73 55.47L257.51 55.47L256.56 50.64L252.17000000000002 50.64L251.22000000000003 55.47L248.00000000000003 55.47Z " fill="#77bc1f" fill-opacity="1" transform="matrix(1,0,0,1,-235,-33)"></path><path id="SvgjsPath1019" d="M263 33L272.6 33L272.6 36.03L266.22 36.03L266.22 42.85L271.78000000000003 42.85L271.78000000000003 45.88L266.22 45.88L266.22 55.47L263 55.47Z " fill="#77bc1f" fill-opacity="1" transform="matrix(1,0,0,1,-235,-33)"></path><path id="SvgjsPath1020" d="M276 33L285.6 33L285.6 36.03L279.22 36.03L279.22 42.63L284.78000000000003 42.63L284.78000000000003 45.660000000000004L279.22 45.660000000000004L279.22 52.25L285.6 52.25L285.6 55.47L276 55.47Z " fill="#77bc1f" fill-opacity="1" transform="matrix(1,0,0,1,-235,-33)"></path></svg>