<?xml version="1.0" encoding="UTF-8"?>
<svg width="23px" height="31px" viewBox="0 0 23 31" version="1.1" xmlns="http://www.w3.org/2000/svg" xmlns:xlink="http://www.w3.org/1999/xlink">
    <g id="index_HD" transform="translate(-30.000000, -2415.000000)">
        <g id="Group-12" transform="translate(-11.000000, 1794.000000)">
            <path d="M62.22,650.827991 L42.522,650.827991 C42.219,650.827991 41.972,650.580991 41.972,650.276991 L41.972,623.322991 C41.972,623.018991 42.219,622.771991 42.522,622.771991 L57.069,622.771991 L57.069,626.950991 C57.069,627.790991 57.752,628.473991 58.591,628.473991 L62.771,628.473991 L62.771,650.276991 C62.771,650.580991 62.524,650.827991 62.22,650.827991 L62.22,650.827991 Z M58.041,623.458991 L62.084,627.501991 L58.591,627.501991 C58.288,627.501991 58.041,627.254991 58.041,626.950991 L58.041,623.458991 Z M63.6,627.643991 L57.898,621.941991 C57.807,621.850991 57.684,621.799991 57.555,621.799991 L42.522,621.799991 C41.683,621.799991 41,622.482991 41,623.322991 L41,650.276991 C41,651.116991 41.683,651.799991 42.522,651.799991 L62.22,651.799991 C63.06,651.799991 63.743,651.116991 63.743,650.276991 L63.743,627.987991 C63.743,627.858991 63.691,627.734991 63.6,627.643991 L63.6,627.643991 Z" id="Fill-1"></path>
        </g>
    </g>
</svg>