<?xml version="1.0" encoding="UTF-8"?>
<svg width="52px" height="74px" viewBox="0 0 52 74" version="1.1" xmlns="http://www.w3.org/2000/svg" xmlns:xlink="http://www.w3.org/1999/xlink">
    <!-- Generator: Sketch 39.1 (31720) - http://www.bohemiancoding.com/sketch -->
    <title>Group 20</title>
    <desc>Created with Sketch.</desc>
    <defs></defs>
    <g id="Pages" stroke="none" stroke-width="1" fill="none" fill-rule="evenodd">
        <g id="index_HD" transform="translate(-104.000000, -24.000000)">
            <g id="Group-11" transform="translate(104.000000, 24.000000)">
                <g id="Group-20">
                    <polygon id="Fill-21" fill="#77BC1F" points="8.03115222 0.223185476 44.4888699 0.24259873 41.8325496 2.85914832 9.35018335 2.87097478 3.12419609 8.95156289 3.12241482 23.3088913 0.542911843 25.93816 0.572748131 7.7470486"></polygon>
                    <polygon id="Fill-23" fill="#77BC1F" points="13.4115479 60.2961159 17.1361854 60.3284713 26.2669803 69.765544 48.3402671 47.5639222 52.0192596 47.5326825 26.3424616 73.2231115"></polygon>
                    <polygon id="Fill-25" fill="#77BC1F" points="3.12265975 37.3613425 7.35139696 37.3613425 9.14936732 35.5762157 5.1290388 35.5762157"></polygon>
                    <polygon id="Fill-27" fill="#77BC1F" points="9.17276876 35.5762157 16.5686057 35.5762157 20.9240358 31.7828213 12.7956512 31.7828213"></polygon>
                    <polygon id="Fill-29" fill="#77BC1F" points="15.4427979 35.4255287 15.4761968 44.4573776 11.1735368 48.7610952 11.1777673 53.2866147 22.0991848 42.4841431 26.2043463 42.4410769 42.1614167 28.0754923 47.0189426 30.6552236 49.7612092 27.7383264 47.5762577 18.1711626 32.6465353 18.1711626"></polygon>
                    <polygon id="Fill-31" fill="#77BC1F" points="45.8529449 19.9144281 49.2994815 16.7558694 49.2545044 10.7629757 47.0835805 15.7425868 41.7172791 18.4387977"></polygon>
                    <polygon id="Fill-33" fill="#77BC1F" points="37.9214575 39.7660421 33.7924715 35.5892917 26.383943 35.1521588 26.8733472 25.1864654 36.793245 21.8295345 41.1395461 32.7125599 41.1395461 41.3824744 35.0344626 47.2803102 35.0669708 42.940667"></polygon>
                    <polygon id="Fill-35" fill="#609E10" points="22.0260413 42.4707993 29.3399398 35.5761934 33.7191944 35.5761934 26.1312029 42.4279562"></polygon>
                    <polygon id="Fill-37" fill="#609E10" points="35.0573965 43.1162565 37.9094339 39.9416317 40.3548963 42.2656436 35.0275602 47.4558997"></polygon>
                    <polygon id="Fill-39" fill="#609E10" points="38.3377405 25.6790042 42.0915464 25.678781 47.0441476 30.7175245 42.1866217 28.13757 40.0891752 30.0597053"></polygon>
                    <polygon id="Fill-41" fill="#609E10" points="47.6486219 18.3050248 45.8392959 19.900705 49.7609865 27.7327256"></polygon>
                    <polygon id="Fill-43" fill="#609E10" points="19.3703445 31.9260777 15.8298459 35.4742403 12.7956735 31.8847966"></polygon>
                    <polygon id="Fill-45" fill="#609E10" points="9.14941185 35.5464487 7.35856658 37.4136913 5.12106762 35.5239115"></polygon>
                    <polygon id="Fill-47" fill="#609E10" points="15.5587587 44.4552132 15.5672197 49.0266997 11.2603292 53.2866817 11.2558761 48.7604927"></polygon>
                </g>
            </g>
        </g>
    </g>
</svg>