<?xml version="1.0" encoding="UTF-8"?>
<svg width="19px" height="19px" viewBox="0 0 19 19" version="1.1" xmlns="http://www.w3.org/2000/svg" xmlns:xlink="http://www.w3.org/1999/xlink">
    <g transform="translate(-47.000000, -69.000000)">
        <path d="M54.7761365,85.3247533 C57.8279405,85.3247533 60.3092218,82.8434719 60.3092218,79.7928976 C60.3092218,76.7423232 57.8279405,74.2585828 54.7761365,74.2585828 C51.7255622,74.2585828 49.2430513,76.7423232 49.2430513,79.7928976 C49.2430513,82.8434719 51.7255622,85.3247533 54.7761365,85.3247533 Z M61.7342987,75.8742436 C62.3896619,77.0325028 62.7683708,78.3690503 62.7683708,79.7928976 C62.7683708,84.1996926 59.1829316,87.7839023 54.7761365,87.7839023 C50.3693415,87.7839023 46.7839023,84.1996926 46.7839023,79.7928976 C46.7839023,75.3861026 50.3693415,71.7994337 54.7761365,71.7994337 C56.4237664,71.7994337 57.9570458,72.3035593 59.230885,73.1605727 L62.6355768,69.7558809 C62.9958421,69.3968452 63.4679987,69.2160977 63.9401553,69.2160977 C64.4123119,69.2160977 64.883239,69.3968452 65.2435043,69.7558809 C65.9640349,70.4764116 65.9640349,71.6432778 65.2435043,72.3638084 L61.7342987,75.8742436 Z" id="Fill-1" transform="translate(56.283902, 78.500000) rotate(-270.000000) translate(-56.283902, -78.500000) "></path>
    </g>
</svg>