<?xml version="1.0" encoding="UTF-8"?>
<svg width="70px" height="94px" viewBox="0 0 70 94" version="1.1" xmlns="http://www.w3.org/2000/svg" xmlns:xlink="http://www.w3.org/1999/xlink">
    <!-- Generator: Sketch 39.1 (31720) - http://www.bohemiancoding.com/sketch -->
    <title>Page 1 Copy 22</title>
    <desc>Created with Sketch.</desc>
    <defs>
        <polygon id="path-1" points="12.8125708 0.984036207 0.00168287526 0.984036207 0.00168287526 13.9506845 12.8125708 13.9506845 12.8125708 0.984036207"></polygon>
        <polygon id="path-3" points="41.1622875 0.984036207 17.4463679 0.984036207 17.4463679 5.24137931 41.1622875 5.24137931 41.1622875 0.984036207"></polygon>
        <polygon id="path-5" points="17.4451057 93.4216569 49.8867336 93.4216569 49.8867336 89.2827034 17.4451057 89.2827034 17.4451057 93.4216569"></polygon>
    </defs>
    <g id="Pages" stroke="none" stroke-width="1" fill="none" fill-rule="evenodd">
        <g id="index_HD" transform="translate(-489.000000, -1625.000000)">
            <g id="Group" transform="translate(30.000000, 1202.000000)">
                <g id="Page-1-Copy-22" transform="translate(459.000000, 423.000000)">
                    <path d="M8.72318393,49.4096638 C8.72318393,49.486319 8.66007611,49.5459397 8.58855391,49.5459397 L4.22569979,49.5459397 C4.1499704,49.5459397 4.08686258,49.486319 4.08686258,49.4096638 L4.08686258,44.9934741 C4.08686258,44.916819 4.1499704,44.8571983 4.22569979,44.8571983 L8.58855391,44.8571983 C8.66007611,44.8571983 8.72318393,44.916819 8.72318393,44.9934741 L8.72318393,49.4096638 Z M8.58855391,40.717819 L4.22569979,40.717819 C1.89491755,40.717819 0.00168287526,42.6341983 0.00168287526,44.9934741 L0.00168287526,49.4096638 C0.00168287526,51.7689397 1.89491755,53.685319 4.22569979,53.685319 L8.58855391,53.685319 C10.915129,53.685319 12.8125708,51.7689397 12.8125708,49.4096638 L12.8125708,44.9934741 C12.8125708,42.6341983 10.915129,40.717819 8.58855391,40.717819 L8.58855391,40.717819 Z" id="Fill-1" fill="#77BC1F"></path>
                    <path d="M19.4910613,44.8567724 L39.1175941,44.8567724 C40.2493277,44.8567724 41.1622875,43.9283931 41.1622875,42.7870828 C41.1622875,41.6457724 40.2493277,40.7173931 39.1175941,40.7173931 L19.4910613,40.7173931 C18.3635349,40.7173931 17.4463679,41.6457724 17.4463679,42.7870828 C17.4463679,43.9283931 18.3635349,44.8567724 19.4910613,44.8567724" id="Fill-3" fill="#77BC1F"></path>
                    <path d="M19.4910613,53.6865966 L47.8433023,53.6865966 C48.9708288,53.6865966 49.8879958,52.7582172 49.8879958,51.6169069 C49.8879958,50.4755966 48.9708288,49.5472172 47.8433023,49.5472172 L19.4910613,49.5472172 C18.3635349,49.5472172 17.4463679,50.4755966 17.4463679,51.6169069 C17.4463679,52.7582172 18.3635349,53.6865966 19.4910613,53.6865966" id="Fill-5" fill="#77BC1F"></path>
                    <path d="M8.72318393,29.5423466 C8.72318393,29.6190017 8.66007611,29.6786224 8.58855391,29.6786224 L4.22569979,29.6786224 C4.1499704,29.6786224 4.08686258,29.6190017 4.08686258,29.5423466 L4.08686258,25.1261569 C4.08686258,25.0495017 4.1499704,24.989881 4.22569979,24.989881 L8.58855391,24.989881 C8.66007611,24.989881 8.72318393,25.0495017 8.72318393,25.1261569 L8.72318393,29.5423466 Z M8.58855391,20.8505017 L4.22569979,20.8505017 C1.89491755,20.8505017 0.00168287526,22.766881 0.00168287526,25.1261569 L0.00168287526,29.5423466 C0.00168287526,31.9016224 1.89491755,33.8180017 4.22569979,33.8180017 L8.58855391,33.8180017 C10.915129,33.8180017 12.8125708,31.9016224 12.8125708,29.5423466 L12.8125708,25.1261569 C12.8125708,22.766881 10.915129,20.8505017 8.58855391,20.8505017 L8.58855391,20.8505017 Z" id="Fill-7" fill="#77BC1F"></path>
                    <path d="M19.4910613,24.9894552 L47.8433023,24.9894552 C48.9708288,24.9894552 49.8879958,24.0610759 49.8879958,22.9197655 C49.8879958,21.7784552 48.9708288,20.8500759 47.8433023,20.8500759 L19.4910613,20.8500759 C18.3635349,20.8500759 17.4463679,21.7784552 17.4463679,22.9197655 C17.4463679,24.0610759 18.3635349,24.9894552 19.4910613,24.9894552" id="Fill-9" fill="#77BC1F"></path>
                    <path d="M67.4694144,29.6803259 L19.4906406,29.6803259 C18.3631142,29.6803259 17.4459471,30.6087052 17.4459471,31.7500155 C17.4459471,32.8913259 18.3631142,33.8197052 19.4906406,33.8197052 L67.4694144,33.8197052 C68.5969408,33.8197052 69.5141078,32.8913259 69.5141078,31.7500155 C69.5141078,30.6087052 68.5969408,29.6803259 67.4694144,29.6803259" id="Fill-11" fill="#77BC1F"></path>
                    <mask id="mask-2" fill="white">
                        <use xlink:href="#path-1"></use>
                    </mask>
                    <g id="Clip-14"></g>
                    <path d="M8.72318393,9.67502931 C8.72318393,9.75168448 8.66007611,9.81130517 8.58855391,9.81130517 L4.22569979,9.81130517 C4.1499704,9.81130517 4.08686258,9.75168448 4.08686258,9.67502931 L4.08686258,5.25883966 C4.08686258,5.18218448 4.1499704,5.12256379 4.22569979,5.12256379 L8.58855391,5.12256379 C8.66007611,5.12256379 8.72318393,5.18218448 8.72318393,5.25883966 L8.72318393,9.67502931 Z M8.58855391,0.983184483 L4.22569979,0.983184483 C1.89491755,0.983184483 0.00168287526,2.89956379 0.00168287526,5.25883966 L0.00168287526,9.67502931 C0.00168287526,12.0343052 1.89491755,13.9506845 4.22569979,13.9506845 L8.58855391,13.9506845 C10.915129,13.9506845 12.8125708,12.0343052 12.8125708,9.67502931 L12.8125708,5.25883966 C12.8125708,2.89956379 10.915129,0.983184483 8.58855391,0.983184483 L8.58855391,0.983184483 Z" id="Fill-13" fill="#77BC1F"></path>
                    <mask id="mask-4" fill="white">
                        <use xlink:href="#path-3"></use>
                    </mask>
                    <g id="Clip-17"></g>
                    <path d="M19.4910613,5.12213793 L39.1175941,5.12213793 C40.2493277,5.12213793 41.1622875,4.19375862 41.1622875,3.05244828 C41.1622875,1.91113793 40.2493277,0.982758621 39.1175941,0.982758621 L19.4910613,0.982758621 C18.3635349,0.982758621 17.4463679,1.91113793 17.4463679,3.05244828 C17.4463679,4.19375862 18.3635349,5.12213793 19.4910613,5.12213793" id="Fill-16" fill="#77BC1F"></path>
                    <path d="M19.4910613,13.9519621 L47.8433023,13.9519621 C48.9708288,13.9519621 49.8879958,13.0235828 49.8879958,11.8822724 C49.8879958,10.7409621 48.9708288,9.81258276 47.8433023,9.81258276 L19.4910613,9.81258276 C18.3635349,9.81258276 17.4463679,10.7409621 17.4463679,11.8822724 C17.4463679,13.0235828 18.3635349,13.9519621 19.4910613,13.9519621" id="Fill-19" fill="#77BC1F"></path>
                    <path d="M8.72318393,89.1447241 C8.72318393,89.2213793 8.66007611,89.281 8.58855391,89.281 L4.22569979,89.281 C4.1499704,89.281 4.08686258,89.2213793 4.08686258,89.1447241 L4.08686258,84.7285345 C4.08686258,84.6518793 4.1499704,84.5922586 4.22569979,84.5922586 L8.58855391,84.5922586 C8.66007611,84.5922586 8.72318393,84.6518793 8.72318393,84.7285345 L8.72318393,89.1447241 Z M8.58855391,80.4528793 L4.22569979,80.4528793 C1.89491755,80.4528793 0.00168287526,82.3692586 0.00168287526,84.7285345 L0.00168287526,89.1447241 C0.00168287526,91.504 1.89491755,93.4203793 4.22569979,93.4203793 L8.58855391,93.4203793 C10.915129,93.4203793 12.8125708,91.504 12.8125708,89.1447241 L12.8125708,84.7285345 C12.8125708,82.3692586 10.915129,80.4528793 8.58855391,80.4528793 L8.58855391,80.4528793 Z" id="Fill-21" fill="#77BC1F"></path>
                    <mask id="mask-6" fill="white">
                        <use xlink:href="#path-5"></use>
                    </mask>
                    <g id="Clip-26"></g>
                    <path d="M48.3039112,80.2586207 L19.9516702,80.2586207 C18.8241438,80.2586207 17.9069767,81.187 17.9069767,82.3283103 C17.9069767,83.4696207 18.8241438,84.398 19.9516702,84.398 L48.3039112,84.398 C49.4314376,84.398 50.3486047,83.4696207 50.3486047,82.3283103 C50.3486047,81.187 49.4314376,80.2586207 48.3039112,80.2586207" id="Fill-25" fill="#77BC1F"></path>
                    <path d="M48.3039112,88.0748276 L19.9516702,88.0748276 C18.8241438,88.0748276 17.9069767,89.0032069 17.9069767,90.1445172 C17.9069767,91.2858276 18.8241438,92.2142069 19.9516702,92.2142069 L48.3039112,92.2142069 C49.4314376,92.2142069 50.3486047,91.2858276 50.3486047,90.1445172 C50.3486047,89.0032069 49.4314376,88.0748276 48.3039112,88.0748276" id="Fill-25-Copy" fill="#77BC1F"></path>
                    <path d="M8.72318393,69.2774069 C8.72318393,69.3540621 8.66007611,69.4136828 8.58855391,69.4136828 L4.22569979,69.4136828 C4.1499704,69.4136828 4.08686258,69.3540621 4.08686258,69.2774069 L4.08686258,64.8612172 C4.08686258,64.7845621 4.1499704,64.7249414 4.22569979,64.7249414 L8.58855391,64.7249414 C8.66007611,64.7249414 8.72318393,64.7845621 8.72318393,64.8612172 L8.72318393,69.2774069 Z M8.58855391,60.5855621 L4.22569979,60.5855621 C1.89491755,60.5855621 0.00168287526,62.5019414 0.00168287526,64.8612172 L0.00168287526,69.2774069 C0.00168287526,71.6366828 1.89491755,73.5530621 4.22569979,73.5530621 L8.58855391,73.5530621 C10.915129,73.5530621 12.8125708,71.6366828 12.8125708,69.2774069 L12.8125708,64.8612172 C12.8125708,62.5019414 10.915129,60.5855621 8.58855391,60.5855621 L8.58855391,60.5855621 Z" id="Fill-28" fill="#77BC1F"></path>
                    <path d="M19.4910613,64.7240897 L47.8433023,64.7240897 C48.9708288,64.7240897 49.8879958,63.7957103 49.8879958,62.6544 C49.8879958,61.5130897 48.9708288,60.5847103 47.8433023,60.5847103 L19.4910613,60.5847103 C18.3635349,60.5847103 17.4463679,61.5130897 17.4463679,62.6544 C17.4463679,63.7957103 18.3635349,64.7240897 19.4910613,64.7240897" id="Fill-30" fill="#77BC1F"></path>
                    <path d="M67.4694144,69.4153862 L19.4906406,69.4153862 C18.3631142,69.4153862 17.4459471,70.3437655 17.4459471,71.4850759 C17.4459471,72.6263862 18.3631142,73.5547655 19.4906406,73.5547655 L67.4694144,73.5547655 C68.5969408,73.5547655 69.5141078,72.6263862 69.5141078,71.4850759 C69.5141078,70.3437655 68.5969408,69.4153862 67.4694144,69.4153862" id="Fill-32" fill="#77BC1F"></path>
                </g>
            </g>
        </g>
    </g>
</svg>