<svg width="23" height="25" viewBox="0 0 23 25" xmlns="http://www.w3.org/2000/svg" xmlns:xlink="http://www.w3.org/1999/xlink">
    <title>
        Page 1 Copy
    </title>
    <defs>
        <path id="a" d="M0 24.5h22.186V0H0z"/>
    </defs>
    <g fill="none" fill-rule="evenodd">
        <mask id="b" fill="#fff">
            <use xlink:href="#a"/>
        </mask>
        <path d="M21.318 23.143c0 .264-.284.488-.62.488H1.489c-.335 0-.62-.224-.62-.488v-1.795c0-1.102.682-2.407 1.984-2.786l3.278-.492c.486 2.111 2.54 3.653 4.963 3.653s4.478-1.542 4.964-3.653l3.278.492c1.302.379 1.983 1.684 1.983 2.786v1.795zM5.967 9.859a.428.428 0 0 0 0-.08V7.387c0-.782.636-1.42 1.419-1.42h7.878a.434.434 0 1 0 0-.868H7.386a2.29 2.29 0 0 0-2.288 2.288v1.309a3.253 3.253 0 0 1-.522-1.772V4.605A2.35 2.35 0 0 1 6.922 2.26c.24 0 .435-.194.435-.435 0-.526.429-.955.955-.955h6.026a3.277 3.277 0 0 1 3.272 3.273v2.78a3.26 3.26 0 0 1-.52 1.773V6.923a.434.434 0 1 0-.87 0v3.244c0 3.082-2.3 5.59-5.127 5.59-2.826 0-5.126-2.508-5.126-5.59v-.308zm5.126 6.767a5.66 5.66 0 0 0 3.288-1.06c.042.793.206 1.672.851 2.202-.349 1.776-2.082 3.086-4.139 3.086-2.056 0-3.79-1.31-4.138-3.086.645-.53.81-1.41.851-2.202a5.658 5.658 0 0 0 3.287 1.06zm8.451 1.092a.383.383 0 0 0-.053-.011l-3.615-.542c-.584-.378-.64-1.317-.64-2.333 1.141-1.177 1.853-2.833 1.853-4.665v-.149a4.12 4.12 0 0 0 1.39-3.095v-2.78A4.146 4.146 0 0 0 14.338 0H8.312c-.864 0-1.59.605-1.777 1.414a3.22 3.22 0 0 0-2.828 3.191v2.318a4.12 4.12 0 0 0 1.391 3.095v.149c0 1.832.712 3.488 1.853 4.665 0 1.016-.055 1.955-.64 2.333l-3.616.542a.41.41 0 0 0-.053.011 3.49 3.49 0 0 0-1.956 1.426A3.948 3.948 0 0 0 0 21.348v1.795C0 23.89.668 24.5 1.488 24.5h19.21c.82 0 1.489-.61 1.489-1.357v-1.795c0-.773-.244-1.555-.686-2.204a3.492 3.492 0 0 0-1.957-1.426z" fill="#9B9B9B" mask="url(#b)"/>
    </g>
</svg>
