<svg width="34" height="25" viewBox="0 0 34 25" xmlns="http://www.w3.org/2000/svg" xmlns:xlink="http://www.w3.org/1999/xlink">
    <title>
        Group 3
    </title>
    <defs>
        <path id="a" d="M10.58 22.941H0V0h21.16v22.941H10.58z"/>
        <path id="c" d="M15.477 22.438V.197H.055v22.241h15.422z"/>
    </defs>
    <g fill="none" fill-rule="evenodd">
        <g transform="translate(0 1.862)">
            <mask id="b" fill="#fff">
                <use xlink:href="#a"/>
            </mask>
            <path d="M20.332 21.67c0 .248-.27.458-.59.458H1.42c-.32 0-.592-.21-.592-.458v-1.68c0-1.032.65-2.254 1.892-2.609l3.127-.46c.463 1.976 2.422 3.42 4.733 3.42 2.311 0 4.27-1.444 4.734-3.42l3.127.46c1.241.355 1.89 1.577 1.89 2.608v1.681zM5.69 9.232a.393.393 0 0 0 0-.075V6.916c0-.733.607-1.33 1.353-1.33h7.514a.41.41 0 0 0 .414-.406.41.41 0 0 0-.414-.407H7.044c-1.203 0-2.182.962-2.182 2.143v1.226a3.006 3.006 0 0 1-.497-1.66v-2.17c0-1.211 1.004-2.197 2.237-2.197a.41.41 0 0 0 .415-.407c0-.493.409-.894.911-.894h5.747c1.72 0 3.12 1.375 3.12 3.065v2.603c0 .6-.175 1.172-.496 1.66v-1.66a.41.41 0 0 0-.415-.406.41.41 0 0 0-.414.406V9.52c0 2.886-2.193 5.234-4.89 5.234-2.696 0-4.889-2.348-4.889-5.234v-.288zm4.89 6.336a5.467 5.467 0 0 0 3.135-.993c.04.743.196 1.566.812 2.063-.333 1.662-1.986 2.89-3.948 2.89-1.961 0-3.614-1.228-3.947-2.89.616-.497.772-1.32.812-2.063.9.627 1.978.993 3.135.993zm8.06 1.023a.372.372 0 0 0-.051-.01l-3.448-.508c-.558-.354-.61-1.233-.611-2.184a6.201 6.201 0 0 0 1.768-4.37v-.138a3.828 3.828 0 0 0 1.325-2.899V3.88c0-2.14-1.772-3.879-3.95-3.879H7.929c-.825 0-1.517.567-1.696 1.324-1.516.18-2.696 1.451-2.696 2.988v2.17c0 1.117.481 2.162 1.326 2.899v.139c0 1.716.68 3.267 1.768 4.369-.001.95-.053 1.83-.611 2.184l-3.448.507a.398.398 0 0 0-.05.011 3.326 3.326 0 0 0-1.866 1.335A3.65 3.65 0 0 0 0 19.99v1.681c0 .7.637 1.271 1.42 1.271h18.32c.784 0 1.42-.57 1.42-1.27v-1.682c0-.723-.232-1.456-.654-2.063a3.327 3.327 0 0 0-1.866-1.335z" fill="#77BC1F" mask="url(#b)"/>
        </g>
        <g transform="translate(17.915 .068)">
            <mask id="d" fill="#fff">
                <use xlink:href="#c"/>
            </mask>
            <path d="M10.676 6.475L9.12 5.082V3.32h1.557v3.155zm4.719 4.566l-3.94-3.925V3.253c0-.564-.583-.697-1.153-.697H9.266c-.576 0-.926.137-.926.697v.807L4.497.345a.6.6 0 0 0-.393-.148.562.562 0 0 0-.38.148L.056 3.94c.053.354.117.776.185 1.254l3.768-3.77 8.226 8.146v12.102H6.782v-9.256c0-.56-.058-.685-.63-.685H2.005c-.575 0-.674.125-.674.685v4.617c0 .18 0 .304.779.405v-4.942h3.894v9.176h-1.11c.029 0 .039.765.034.765h7.451c.57 0 .635-.56.635-1.12V10.326l1.416 1.436c.096.095.312.148.453.148.288 0 .595-.228.595-.51-.005-.14.01-.27-.082-.36z" fill="#77BC1F" mask="url(#d)"/>
        </g>
    </g>
</svg>
