<svg width="65" height="47" viewBox="0 0 65 47" xmlns="http://www.w3.org/2000/svg">
    <title>
        Page 1
    </title>
    <path d="M57.148 1L54.333 3.77l-3.259 6.352h-1.852l-1.111 1.944-2.815 2.242v1.48l-1.769 2.148-1.768-1.777-1.463.37v1.037l-4.389 2.149 1.537-3.556-.963-1.26-2.297-.37-.443 1.26-2.815 2.594L29 18.9l-1.186 1.633-1.926-1.922-1.185 5.195-2.741-2.796-1.629 1.073-4.074-.962h-3.926l.889-3.556 1.185 2.149 1.556-.224-1.185-5.406-1.112.445-3.629 5.332-2.296 1.111-.889-.148-2.223 2.372.519 1.406-1.63 2.298.593 3.557.592 3.483L1 35.724l3.111 7.935.741.688.963-3.735 1.926-.51.37-3.981h3.333l1.555 2.425 3.112 1.241.814-2.666 4.964.518.073.964 1.557 1.259 1.333-.149 1.555 3.556 4.074 2 2.667-1.185 1.407.666 1.778-1.037-.741-.889 2.222-.37 1.408.815 3.556.443 2.962-2.224 2-.52-.147-4.007 2.518-.898 2.222 1.831 2.741.55 1.259-1.787.667 5.464h1.778l.147-3.834-1.406-6.056-1.852-2.074-.815.964-1.925-.444.816-6.89 2.817-4.518.154-4.74 1.047-.223 1.725 7.037 3.894 2.445-1.028-4.223-2.056-3.037v-4.593L58.87 6.446l-1.722-.302-.593-1.35 1.63-2.104z" stroke-width="2" stroke="#77BC1F" fill="none" fill-rule="evenodd" stroke-linecap="round" stroke-linejoin="round"/>
</svg>
