<svg width="23" height="14" viewBox="0 0 23 14" xmlns="http://www.w3.org/2000/svg">
    <path d="M.005 7.01c-.064 2.921 2.047 5.709 4.95 6.618 2.735.875 6.097.22 7.917-2.012 1.329-1.564 1.63-3.65 1.487-5.598-2.342-.02-4.684-.014-7.023-.01-.004.795 0 1.587.004 2.382 1.402.037 2.804.02 4.207.047-.354 1.157-1.16 2.233-2.385 2.65-2.363.993-5.378-.304-6.121-2.667-.898-2.262.571-4.993 2.997-5.651 1.505-.505 3.054.063 4.341.809a32.412 32.412 0 0 0 1.862-1.832C10.78.58 8.9-.136 6.968.022 3.178.065-.14 3.4.005 7.01M18.114 3c-.007.665-.014 1.333-.017 1.999-.702.006-1.4.01-2.097.013v1.992c.697.003 1.399.007 2.097.013.007.665.007 1.33.014 1.999.694 0 1.391-.003 2.09 0 .003-.668.006-1.334.013-2.002l2.097-.01V5.012c-.698-.003-1.399-.007-2.097-.013-.003-.666-.01-1.334-.014-1.999h-2.086z"/>
    <path d="M.005 7.01C-.14 3.4 3.178.065 6.968.022 8.9-.136 10.779.58 12.24 1.746c-.6.628-1.21 1.25-1.862 1.832-1.287-.746-2.836-1.314-4.34-.81-2.427.66-3.896 3.39-2.998 5.652.743 2.363 3.758 3.66 6.121 2.668 1.224-.418 2.03-1.494 2.385-2.65-1.403-.028-2.805-.01-4.207-.048-.004-.795-.008-1.587-.004-2.382 2.339-.004 4.68-.01 7.023.01.143 1.948-.158 4.034-1.487 5.598-1.82 2.232-5.182 2.887-7.917 2.012C2.052 12.718-.059 9.93.005 7.01M18.114 3H20.2l.014 1.999c.698.006 1.4.01 2.097.013v1.992l-2.097.01c-.007.668-.01 1.333-.014 2.002-.698-.003-1.395 0-2.09 0-.006-.668-.006-1.334-.013-1.999-.698-.006-1.4-.01-2.097-.013V5.012c.697-.003 1.395-.007 2.097-.013.003-.666.01-1.334.017-1.999"/>
</svg>
