<svg width="24" height="13" viewBox="0 0 24 13" xmlns="http://www.w3.org/2000/svg">
    <path d="M12.84 12.664s.422-.044.638-.265c.198-.204.192-.586.192-.586s-.028-1.788.843-2.05c.858-.26 1.96 1.727 3.128 2.491.883.578 1.554.452 1.554.452l3.124-.042s1.633-.096.858-1.32c-.063-.1-.45-.906-2.322-2.561-1.958-1.733-1.696-1.453.663-4.45C22.955 2.508 23.53 1.394 23.35.917c-.171-.455-1.228-.335-1.228-.335l-3.516.02s-.261-.033-.454.077c-.19.108-.31.36-.31.36s-.557 1.412-1.3 2.614c-1.565 2.534-2.192 2.668-2.447 2.51-.596-.366-.447-1.473-.447-2.26 0-2.455.39-3.48-.761-3.745-.382-.088-.664-.146-1.641-.155C9.99-.01 8.929.006 8.328.287c-.4.187-.709.603-.52.627.232.03.758.135 1.037.497.36.468.348 1.517.348 1.517s.207 2.891-.484 3.25c-.474.247-1.124-.256-2.52-2.555-.715-1.178-1.255-2.48-1.255-2.48S4.83.899 4.644.769c-.226-.158-.54-.208-.54-.208L.762.582S.261.596.076.804c-.163.184-.013.567-.013.567s2.616 5.834 5.578 8.774c2.717 2.696 5.801 2.52 5.801 2.52h1.398z"/>
</svg>
