<svg width="20" height="19" viewBox="0 0 20 19" xmlns="http://www.w3.org/2000/svg">
    <path d="M.253 18.088h4.256V5.883H.253v12.205zM2.409 0C.952 0 0 .91 0 2.108c0 1.172.925 2.11 2.353 2.11h.028c1.485 0 2.408-.938 2.408-2.11C4.76.911 3.866 0 2.409 0zm17.449 11.089v7H15.6v-6.53c0-1.64-.615-2.76-2.156-2.76-1.177 0-1.875.754-2.184 1.484-.112.26-.141.623-.141.989v6.816H6.863s.057-11.06 0-12.205h4.257v1.73c-.008.014-.02.027-.028.04h.028v-.04c.566-.83 1.575-2.016 3.837-2.016 2.8 0 4.9 1.744 4.9 5.492z"/>
</svg>
