<svg width="52" height="74" viewBox="0 0 52 74" xmlns="http://www.w3.org/2000/svg">
    <title>
        Group 20
    </title>
    <g fill="none" fill-rule="evenodd">
        <path fill="#77BC1F" d="M8.031.223l36.458.02-2.656 2.616-32.483.012-6.226 6.08-.002 14.358-2.58 2.63.03-18.192zM13.412 60.296l3.724.032 9.131 9.438L48.34 47.564l3.68-.031-25.678 25.69zM3.123 37.361H7.35l1.798-1.785H5.13zM9.173 35.576h7.396l4.355-3.793h-8.128z"/>
        <path fill="#77BC1F" d="M15.443 35.426l.033 9.031-4.302 4.304.004 4.526 10.921-10.803 4.105-.043 15.957-14.366 4.858 2.58 2.742-2.917-2.185-9.567h-14.93z"/>
        <path fill="#77BC1F" d="M45.853 19.914l3.446-3.158-.044-5.993-2.171 4.98-5.367 2.696zM37.921 39.766l-4.129-4.177-7.408-.437.49-9.966 9.92-3.356 4.346 10.883v8.67l-6.106 5.897.033-4.34z"/>
        <path fill="#609E10" d="M22.026 42.47l7.314-6.894h4.38l-7.589 6.852zM35.057 43.116l2.852-3.174 2.446 2.324-5.327 5.19zM38.338 25.679h3.754l4.952 5.039-4.857-2.58-2.098 1.922zM47.649 18.305l-1.81 1.596 3.922 7.832zM19.37 31.926l-3.54 3.548-3.034-3.59zM9.15 35.546l-1.791 1.868-2.238-1.89zM15.559 44.455l.008 4.572-4.307 4.26-.004-4.527z"/>
    </g>
</svg>
