<svg width="29" height="27" viewBox="0 0 29 27" xmlns="http://www.w3.org/2000/svg">
    <title>
        Page 1 Copy 6
    </title>
    <g fill="#77BC1F" fill-rule="evenodd">
        <path d="M28.06 22.836c0 1.426-1.137 2.586-2.536 2.586H3.476c-1.399 0-2.536-1.16-2.536-2.586V8.529c0-1.426 1.137-2.586 2.536-2.586h22.048c1.399 0 2.536 1.16 2.536 2.586v14.307zM4.447 4.44c0-.017.014-.031.032-.031h1.503a.03.03 0 0 1 .03.031v.543H4.448v-.543zm7.517.543h5.073V3.388h-5.073v1.596zM9.959 2.91c0-.863.688-1.565 1.535-1.565h6.012c.846 0 1.535.702 1.535 1.565v2.075h-1.065V2.91c0-.265-.21-.48-.47-.48h-6.012c-.26 0-.47.215-.47.48v2.075H9.959V2.91zM22.987 4.44a.03.03 0 0 1 .031-.031h1.504a.03.03 0 0 1 .03.031v.543h-1.565v-.543zm2.537.543h-.032v-.543a.98.98 0 0 0-.97-.99h-1.504a.98.98 0 0 0-.97.99v.543H19.98V2.91c0-1.391-1.11-2.523-2.474-2.523h-6.012c-1.364 0-2.475 1.132-2.475 2.523v2.075H6.952v-.543a.98.98 0 0 0-.97-.99H4.479a.982.982 0 0 0-.972.99v.543h-.03C1.558 4.984 0 6.574 0 8.53v14.307c0 1.954 1.56 3.544 3.476 3.544h22.048c1.917 0 3.476-1.59 3.476-3.544V8.529c0-1.955-1.56-3.545-3.476-3.545z"/>
        <path d="M25.023 15.203H3.977c-.26 0-.47.215-.47.48 0 .264.21.478.47.478h21.046c.259 0 .47-.214.47-.479 0-.264-.211-.479-.47-.479M25.023 10.094H3.977c-.26 0-.47.215-.47.479s.21.479.47.479h21.046c.259 0 .47-.215.47-.48 0-.263-.211-.478-.47-.478M25.023 20.313H3.977c-.26 0-.47.215-.47.479s.21.479.47.479h21.046c.259 0 .47-.215.47-.479s-.211-.48-.47-.48"/>
    </g>
</svg>
