<svg width="78" height="103" viewBox="0 0 78 103" xmlns="http://www.w3.org/2000/svg">
    <title>
        Page 1 Copy 21
    </title>
    <g fill="#77BC1F" fill-rule="evenodd">
        <path d="M72.503 99.663H5.201a1.888 1.888 0 0 1-1.879-1.892V5.23c0-1.043.844-1.891 1.88-1.891h49.702v14.347c0 2.884 2.333 5.23 5.2 5.23h14.282V97.77a1.889 1.889 0 0 1-1.883 1.892zM58.225 5.696l13.813 13.881H60.104a1.888 1.888 0 0 1-1.88-1.892V5.696zm18.993 14.369L57.736.488A1.65 1.65 0 0 0 56.564 0H5.201c-2.866 0-5.2 2.345-5.2 5.23V97.77c0 2.884 2.334 5.23 5.2 5.23h67.302c2.87 0 5.204-2.346 5.204-5.23V21.246c0-.443-.178-.869-.489-1.181z"/>
        <path d="M12.287 14.015h12.399c.916 0 1.657-.748 1.657-1.668 0-.92-.741-1.669-1.657-1.669h-12.4c-.915 0-1.66.748-1.66 1.669 0 .92.745 1.668 1.66 1.668M12.287 22.914h19.482c.915 0 1.66-.749 1.66-1.669s-.745-1.668-1.66-1.668H12.287c-.916 0-1.66.748-1.66 1.668 0 .92.744 1.669 1.66 1.669M26.566 35.483c0 .92.745 1.668 1.66 1.668h21.252c.92 0 1.66-.748 1.66-1.668 0-.92-.74-1.669-1.66-1.669H28.227c-.916 0-1.66.749-1.66 1.669M65.419 42.713H12.286c-.916 0-1.66.748-1.66 1.668 0 .92.744 1.669 1.66 1.669H65.42c.916 0 1.66-.749 1.66-1.669s-.744-1.668-1.66-1.668M44.166 74.747H31.767c-.916 0-1.657.749-1.657 1.669s.741 1.669 1.657 1.669h12.4c.915 0 1.66-.749 1.66-1.669s-.745-1.669-1.66-1.669M44.166 83.646H31.767c-.916 0-1.657.748-1.657 1.669 0 .92.741 1.668 1.657 1.668h12.4c.915 0 1.66-.748 1.66-1.668 0-.92-.745-1.669-1.66-1.669M65.419 51.611H12.286c-.916 0-1.66.749-1.66 1.669s.744 1.668 1.66 1.668H65.42c.916 0 1.66-.748 1.66-1.668 0-.92-.744-1.669-1.66-1.669M65.419 60.51H12.286c-.916 0-1.66.748-1.66 1.668 0 .92.744 1.669 1.66 1.669H65.42c.916 0 1.66-.749 1.66-1.669s-.744-1.668-1.66-1.668M58.334 87.205c-2.99 0-5.422-2.444-5.422-5.448 0-3.008 2.433-5.453 5.422-5.453 2.99 0 5.423 2.445 5.423 5.453 0 3.004-2.433 5.448-5.423 5.448m0-14.238c-4.82 0-8.743 3.942-8.743 8.79 0 4.844 3.922 8.785 8.743 8.785s8.744-3.941 8.744-8.785c0-4.848-3.923-8.79-8.744-8.79"/>
        <path d="M58.334 78.752a3 3 0 0 0-2.99 3.004 3 3 0 0 0 2.99 3 3 3 0 0 0 2.99-3 3 3 0 0 0-2.99-3.004"/>
    </g>
</svg>
