<svg width="33" height="19" viewBox="0 0 33 19" xmlns="http://www.w3.org/2000/svg" xmlns:xlink="http://www.w3.org/1999/xlink">
    <defs>
        <path id="a" d="M0 18.481h32.904V.471H0z"/>
    </defs>
    <g fill-rule="evenodd">
        <path d="M6.808 15.656a.711.711 0 0 1-.718-.705c0-.39.322-.705.718-.705.395 0 .717.316.717.705 0 .389-.322.705-.717.705m0-2.464c-.988 0-1.79.789-1.79 1.759 0 .97.802 1.758 1.79 1.758.987 0 1.79-.79 1.79-1.758 0-.97-.803-1.76-1.79-1.76M25.515 15.656a.711.711 0 0 1-.717-.705c0-.39.321-.705.717-.705.396 0 .717.316.717.705 0 .389-.321.705-.717.705m0-2.464c-.987 0-1.79.789-1.79 1.759 0 .97.803 1.758 1.79 1.758s1.79-.79 1.79-1.758c0-.97-.803-1.76-1.79-1.76"/>
        <mask id="b">
            <use xlink:href="#a"/>
        </mask>
        <path d="M29.09 14.619a3.444 3.444 0 0 0-.122-.64h2.552l-.075.64H29.09zm-3.575-3.198a3.607 3.607 0 0 0-2.938 1.505h-9.539a.532.532 0 0 0-.536.526c0 .29.24.527.536.527h9.025c-.06.207-.103.42-.124.64H10.383c-.171-1.791-1.709-3.198-3.576-3.198a3.607 3.607 0 0 0-2.938 1.505H1.072v-3.61c0-.523.358-.989.871-1.131 1.553-.43 2.784-1.647 3.212-3.175l.068-.243c.535-1.908 2.316-3.242 4.33-3.242h8.684c1.117 0 2.176.581 2.761 1.517l2.69 4.296a.537.537 0 0 0 .396.247l5.042.565a3.05 3.05 0 0 1 2.477 1.847H29.93a.53.53 0 0 0-.536.525c0 .291.24.527.536.527h1.9a3.03 3.03 0 0 1-.018.422l-.168 1.455h-3.189a3.61 3.61 0 0 0-2.939-1.505zm0 6.005c-1.39 0-2.52-1.11-2.52-2.475 0-1.366 1.13-2.477 2.52-2.477 1.39 0 2.52 1.111 2.52 2.477 0 1.365-1.13 2.475-2.52 2.475zm-18.708 0c-1.39 0-2.519-1.11-2.519-2.475 0-1.366 1.13-2.477 2.52-2.477 1.389 0 2.519 1.111 2.519 2.477 0 1.365-1.13 2.475-2.52 2.475zM1.072 13.98h2.284c-.06.207-.103.42-.124.64h-2.16v-.64zm28.175-6.875l-4.783-.537-2.552-4.077A4.362 4.362 0 0 0 18.237.471H9.554c-2.497 0-4.702 1.653-5.365 4.017l-.068.242a3.553 3.553 0 0 1-2.468 2.442A2.242 2.242 0 0 0 0 9.315v5.831c0 .291.24.526.536.526h2.755c.34 1.601 1.788 2.809 3.516 2.809 1.729 0 3.177-1.208 3.517-2.81h11.675c.34 1.602 1.787 2.81 3.516 2.81 1.728 0 3.176-1.208 3.516-2.81h2.892c.273 0 .503-.2.533-.466l.42-3.616c.258-2.219-1.37-4.23-3.629-4.485z" mask="url(#b)"/>
        <path d="M18.265 8.424h-1.126a.532.532 0 0 0-.537.527c0 .291.24.526.537.526h1.126a.53.53 0 0 0 .536-.526.532.532 0 0 0-.536-.527M11.067 8.951a.532.532 0 0 0-.537-.527H9.404a.53.53 0 0 0-.535.527c0 .291.239.527.535.527h1.126a.532.532 0 0 0 .537-.527M11.73 13.25a.537.537 0 1 0-1.018.086c-.106.458.434.813.826.55a.526.526 0 0 0 .193-.635M15.32 6.535V3.222h2.917a1.53 1.53 0 0 1 1.29.709l1.63 2.604H15.32zm-8.5-1.076l.067-.241A2.73 2.73 0 0 1 8.24 3.55v2.985H6.534c.091-.35.201-.772.287-1.076zm7.428-2.237v3.313H9.312V3.232c.08-.006.16-.01.242-.01h4.694zm6.193.158a2.615 2.615 0 0 0-2.204-1.211H9.554c-1.722 0-3.243 1.139-3.7 2.77l-.068.241c-.175.63-.447 1.71-.46 1.756a.52.52 0 0 0 .1.45.543.543 0 0 0 .422.203h16.27a.536.536 0 0 0 .466-.27.516.516 0 0 0-.01-.533L20.44 3.38z" mask="url(#b)"/>
    </g>
</svg>
