<svg width="21" height="17" viewBox="0 0 21 17" xmlns="http://www.w3.org/2000/svg">
    <path d="M20.75 1.903a8.821 8.821 0 0 1-2.446.639A4.112 4.112 0 0 0 20.176.296a8.78 8.78 0 0 1-2.703.984A4.353 4.353 0 0 0 14.365 0c-2.35 0-4.257 1.817-4.257 4.058 0 .318.038.628.11.925-3.537-.17-6.674-1.785-8.774-4.24a3.897 3.897 0 0 0-.577 2.04c0 1.408.752 2.65 1.894 3.378a4.392 4.392 0 0 1-1.928-.508v.051C.833 7.67 2.3 9.31 4.248 9.683a4.436 4.436 0 0 1-1.922.07c.541 1.612 2.113 2.785 3.976 2.818a8.81 8.81 0 0 1-5.287 1.737c-.343 0-.683-.019-1.015-.057a12.474 12.474 0 0 0 6.525 1.824c7.83 0 12.113-6.183 12.113-11.547 0-.176-.005-.35-.013-.524a8.426 8.426 0 0 0 2.124-2.101"/>
</svg>
