<svg width="34" height="42" viewBox="0 0 34 42" xmlns="http://www.w3.org/2000/svg">
    <title>
        Fill 1
    </title>
    <path d="M32.311 39.868c0 .426-.35.772-.78.772h-3.718v-1.897c0-.52.186-1.025.521-1.424l2.774-3.29a3.65 3.65 0 0 1 1.203 2.707v3.132zm-30.934 0v-3.132a3.65 3.65 0 0 1 1.202-2.707l2.774 3.29c.336.399.522.904.522 1.424v1.897H2.157a.777.777 0 0 1-.78-.772zm2.816-6.696l5.02-1.24 2.949 4.08a1.422 1.422 0 0 0 1.156.589c.32 0 .637-.108.89-.308l1.947-1.54v3.663c0 .377.31.68.689.68.38 0 .688-.303.688-.68v-3.663l1.948 1.54a1.437 1.437 0 0 0 1.084.294c.385-.054.737-.262.962-.576l2.95-4.08 5.019 1.241c.148.036.292.083.43.134l-2.649 3.142a3.569 3.569 0 0 0-.84 2.295v1.897H7.252v-1.897c0-.838-.3-1.652-.84-2.295l-2.65-3.142a3.94 3.94 0 0 1 .431-.134zm7.517-3.233a.046.046 0 0 1 .062-.002l3.992 3.382-2.416 1.911c-.005.003-.016.013-.036.01-.018-.003-.027-.016-.03-.02L10.4 31.233l1.31-1.294zm5.134-1.002c1.31 0 2.564-.297 3.717-.839v1.193l-3.717 3.15-3.717-3.15v-1.193a8.722 8.722 0 0 0 3.717.839zM3.58 21.726c0-8.279 1.885-14.159 5.603-17.48 2.81-2.511 6.006-2.885 7.66-2.885 1.656 0 4.852.374 7.664 2.886 3.717 3.32 5.601 9.2 5.601 17.479 0 .767-1.188 1.555-2.77 2.224.807-1.156 1.076-2.451 1.165-3.15.462-.232.78-.705.78-1.251v-3.601c0-.776-.64-1.407-1.425-1.407h-1.304a.738.738 0 0 0-.158-.027c-5.952-.281-14.948-2.504-17.576-4.02a.696.696 0 0 0-.558-.06.683.683 0 0 0-.418.37 13.993 13.993 0 0 0-1.077 3.71H5.83c-.785 0-1.423.63-1.423 1.406v3.629c0 .775.638 1.405 1.423 1.405h1.43a12.921 12.921 0 0 0 2.057 4.01c-2.784-.769-5.736-2.03-5.736-3.238zm14.733 2.948a.777.777 0 0 1-.78-.771c0-.426.35-.772.78-.772.43 0 .78.346.78.772a.777.777 0 0 1-.78.771zm9.592-5.125a.046.046 0 0 1-.047.044H26.78c.194-.945.3-1.932.3-2.947 0-.123-.005-.432-.01-.744h.788c.026 0 .047.02.047.046v3.6zm-2.652 4.596c-.158.11-.324.208-.5.294a13.091 13.091 0 0 0 1.676-3.485h.657c-.154.863-.595 2.321-1.833 3.19zM6.907 19.593H5.83a.046.046 0 0 1-.046-.044v-3.63c0-.024.02-.044.046-.044h.8a14.647 14.647 0 0 0 .278 3.718zm1.078-2.947c0-1.593.29-3.176.84-4.62 1.552.723 4.137 1.54 7.159 2.254 3.442.814 6.935 1.372 9.708 1.557.006.322.01.67.01.81 0 3.28-1.177 6.227-3.037 8.231-.693.003-1.46-.103-2.3-.319.067-.207.106-.427.106-.656 0-1.175-.97-2.133-2.158-2.133-1.19 0-2.158.958-2.158 2.133 0 1.176.968 2.132 2.158 2.132.415 0 .803-.118 1.133-.32a13.04 13.04 0 0 0 1.8.414c-1.297.92-2.801 1.447-4.402 1.447-4.885 0-8.859-4.903-8.859-10.93zM21.978 29.94l1.31 1.294-2.881 3.987c-.004.004-.012.017-.031.02-.02.001-.032-.007-.036-.01l-2.417-1.911 3.993-3.382a.046.046 0 0 1 .062.002zm7.851 1.913l-5.29-1.306-1.586-1.57a1.435 1.435 0 0 0-1.015-.407v-1.266c.241-.165.473-.344.701-.532a32.138 32.138 0 0 0 4.232-1.17c3.104-1.117 4.614-2.384 4.614-3.875 0-8.679-2.037-14.9-6.056-18.489C22.277.42 18.697 0 16.844 0c-1.853 0-5.432.42-8.585 3.237-4.02 3.59-6.056 9.81-6.056 18.489 0 1.49 1.51 2.758 4.614 3.875a32.138 32.138 0 0 0 4.231 1.17c.228.188.462.367.702.532v1.266a1.43 1.43 0 0 0-1.013.407l-1.588 1.57-5.29 1.306c-2.273.561-3.86 2.57-3.86 4.884v3.132C0 41.044.968 42 2.158 42H31.53c1.19 0 2.158-.956 2.158-2.132v-3.132c0-2.314-1.587-4.323-3.859-4.884z" fill="#FFF" fill-rule="evenodd"/>
</svg>
