<svg width="31" height="26" viewBox="0 0 31 26" xmlns="http://www.w3.org/2000/svg">
    <title>
        Fill 1
    </title>
    <g fill="#77BC1F" fill-rule="evenodd">
        <path d="M16.558 4.714l.002.004-.002-.004zm-.26.006l-.003.006c.001-.002.002-.005.004-.006zm.523 21.179l-.783-.788 11.726-11.807a6.647 6.647 0 0 0 1.953-4.72 6.693 6.693 0 0 0-1.948-4.756 6.62 6.62 0 0 0-4.712-1.964 6.603 6.603 0 0 0-4.712 1.965 6.815 6.815 0 0 0-1.083 1.44.946.946 0 0 1-.832.486.95.95 0 0 1-.838-.497 6.668 6.668 0 0 0-1.077-1.435 6.601 6.601 0 0 0-4.713-1.966 6.601 6.601 0 0 0-4.713 1.966A6.69 6.69 0 0 0 3.144 8.41l-1.108-.026a7.81 7.81 0 0 1 2.27-5.348A7.7 7.7 0 0 1 9.802.743c2.075 0 4.026.814 5.495 2.292.427.429.807.92 1.134 1.46.33-.543.71-1.03 1.13-1.454A7.698 7.698 0 0 1 23.058.749c2.07 0 4.02.814 5.495 2.291a7.8 7.8 0 0 1 2.272 5.546 7.755 7.755 0 0 1-2.278 5.507L16.82 25.899z"/>
        <path d="M10.96 19.481h3.857v-3.268h-3.856v3.268zm2.86 3.334c0 .458-.369.83-.824.83H.676V12.048h12.32c.455 0 .825.372.825.83v2.654h-3.2a.34.34 0 0 0-.337.34v3.95c0 .187.151.34.338.34h3.199v2.653zm-2.07-11.448h-.026.026zm-10.538 0H.338a.34.34 0 0 0-.338.341v12.278c0 .188.151.34.338.34h12.658c.828 0 1.502-.677 1.502-1.51v-2.654h.657a.34.34 0 0 0 .338-.34v-3.95a.34.34 0 0 0-.338-.34h-.657v-2.654c0-.833-.674-1.51-1.502-1.51H1.212z"/>
        <path d="M12.889 17.506a.34.34 0 0 1 .338.34.34.34 0 0 1-.338.341.34.34 0 0 1-.338-.34.34.34 0 0 1 .338-.34m0 1.36c.56 0 1.015-.457 1.015-1.02a1.02 1.02 0 0 0-1.015-1.022 1.02 1.02 0 0 0-1.015 1.021c0 .564.455 1.022 1.015 1.022"/>
    </g>
</svg>
