<svg width="36" height="26" viewBox="0 0 36 26" xmlns="http://www.w3.org/2000/svg">
    <title>
        Fill 1
    </title>
    <g fill="none" fill-rule="evenodd">
        <path d="M20.886 4.682l.002.004-.002-.004zm-.262.006l-.003.006.003-.006zm.528 21.038l-.79-.783 11.83-11.728a6.551 6.551 0 0 0 1.97-4.689 6.596 6.596 0 0 0-1.965-4.723 6.733 6.733 0 0 0-4.754-1.952 6.715 6.715 0 0 0-4.754 1.953 6.78 6.78 0 0 0-1.093 1.43.956.956 0 0 1-.84.483.963.963 0 0 1-.845-.494 6.633 6.633 0 0 0-1.087-1.425 6.713 6.713 0 0 0-4.754-1.954 6.713 6.713 0 0 0-4.755 1.954A6.586 6.586 0 0 0 7.35 8.466L6.233 8.46a7.687 7.687 0 0 1 2.292-5.445A7.83 7.83 0 0 1 14.07.738c2.093 0 4.062.808 5.544 2.277.43.426.814.913 1.144 1.45a7.813 7.813 0 0 1 1.14-1.444A7.829 7.829 0 0 1 27.443.744c2.088 0 4.056.808 5.544 2.276a7.687 7.687 0 0 1 2.293 5.508 7.644 7.644 0 0 1-2.3 5.47L21.153 25.726z" fill="#77BC1F"/>
        <path stroke="#77BC1F" stroke-linecap="round" stroke-linejoin="round" d="M3.234 24.696h2.979v-6.64H3.234zM8.447 24.696h2.979V12.89h-2.98zM14.404 24.696h2.979V8.463h-2.979zM18.5 24.696H1.372"/>
    </g>
</svg>
