<svg width="70" height="94" viewBox="0 0 70 94" xmlns="http://www.w3.org/2000/svg">
    <title>
        Page 1 Copy 22
    </title>
    <defs>
        <path id="a" d="M12.813.984H.002v12.967h12.81V.984z"/>
        <path id="b" d="M41.162.984H17.446v4.257h23.716V.984z"/>
        <path id="c" d="M17.445 93.422h32.442v-4.14H17.445v4.14z"/>
    </defs>
    <g fill="none" fill-rule="evenodd">
        <path d="M8.723 49.41a.136.136 0 0 1-.134.136H4.226a.137.137 0 0 1-.14-.136v-4.417c0-.076.064-.136.14-.136h4.363c.071 0 .134.06.134.136v4.417zm-.134-8.692H4.226c-2.331 0-4.224 1.916-4.224 4.275v4.417c0 2.359 1.893 4.275 4.224 4.275h4.363c2.326 0 4.224-1.916 4.224-4.275v-4.417c0-2.359-1.898-4.275-4.224-4.275zM19.491 44.857h19.627c1.131 0 2.044-.929 2.044-2.07 0-1.141-.913-2.07-2.044-2.07H19.49c-1.127 0-2.045.929-2.045 2.07 0 1.141.918 2.07 2.045 2.07M19.491 53.687h28.352c1.128 0 2.045-.929 2.045-2.07 0-1.141-.917-2.07-2.045-2.07H19.491c-1.127 0-2.045.929-2.045 2.07 0 1.141.918 2.07 2.045 2.07M8.723 29.542a.136.136 0 0 1-.134.137H4.226a.137.137 0 0 1-.14-.137v-4.416c0-.076.064-.136.14-.136h4.363c.071 0 .134.06.134.136v4.416zm-.134-8.691H4.226c-2.331 0-4.224 1.916-4.224 4.275v4.416c0 2.36 1.893 4.276 4.224 4.276h4.363c2.326 0 4.224-1.916 4.224-4.276v-4.416c0-2.36-1.898-4.275-4.224-4.275zM19.491 24.99h28.352c1.128 0 2.045-.929 2.045-2.07 0-1.142-.917-2.07-2.045-2.07H19.491c-1.127 0-2.045.928-2.045 2.07 0 1.141.918 2.07 2.045 2.07M67.47 29.68H19.49c-1.127 0-2.044.929-2.044 2.07 0 1.141.917 2.07 2.045 2.07h47.978c1.128 0 2.045-.929 2.045-2.07 0-1.141-.917-2.07-2.045-2.07M8.723 9.675a.136.136 0 0 1-.134.136H4.226a.137.137 0 0 1-.14-.136V5.259c0-.077.064-.136.14-.136h4.363c.071 0 .134.06.134.136v4.416zM8.59.983H4.226C1.895.983.002 2.9.002 5.26v4.416c0 2.36 1.893 4.276 4.224 4.276h4.363c2.326 0 4.224-1.917 4.224-4.276V5.259c0-2.36-1.898-4.276-4.224-4.276zM19.491 5.122h19.627c1.131 0 2.044-.928 2.044-2.07 0-1.14-.913-2.07-2.044-2.07H19.49c-1.127 0-2.045.93-2.045 2.07 0 1.142.918 2.07 2.045 2.07M19.491 13.952h28.352c1.128 0 2.045-.928 2.045-2.07 0-1.141-.917-2.07-2.045-2.07H19.491c-1.127 0-2.045.929-2.045 2.07 0 1.142.918 2.07 2.045 2.07M8.723 89.145a.136.136 0 0 1-.134.136H4.226a.137.137 0 0 1-.14-.136v-4.416c0-.077.064-.137.14-.137h4.363c.071 0 .134.06.134.137v4.416zm-.134-8.692H4.226c-2.331 0-4.224 1.916-4.224 4.276v4.416c0 2.359 1.893 4.275 4.224 4.275h4.363c2.326 0 4.224-1.916 4.224-4.275v-4.416c0-2.36-1.898-4.276-4.224-4.276zM48.304 80.259H19.952c-1.128 0-2.045.928-2.045 2.07 0 1.14.917 2.069 2.045 2.069h28.352c1.127 0 2.045-.928 2.045-2.07 0-1.141-.918-2.07-2.045-2.07M48.304 88.075H19.952c-1.128 0-2.045.928-2.045 2.07 0 1.14.917 2.07 2.045 2.07h28.352c1.127 0 2.045-.93 2.045-2.07 0-1.142-.918-2.07-2.045-2.07M8.723 69.277a.136.136 0 0 1-.134.137H4.226a.137.137 0 0 1-.14-.137v-4.416c0-.076.064-.136.14-.136h4.363c.071 0 .134.06.134.136v4.416zm-.134-8.691H4.226c-2.331 0-4.224 1.916-4.224 4.275v4.416c0 2.36 1.893 4.276 4.224 4.276h4.363c2.326 0 4.224-1.916 4.224-4.276v-4.416c0-2.36-1.898-4.275-4.224-4.275zM19.491 64.724h28.352c1.128 0 2.045-.928 2.045-2.07 0-1.14-.917-2.07-2.045-2.07H19.491c-1.127 0-2.045.93-2.045 2.07 0 1.142.918 2.07 2.045 2.07M67.47 69.415H19.49c-1.127 0-2.044.929-2.044 2.07 0 1.141.917 2.07 2.045 2.07h47.978c1.128 0 2.045-.929 2.045-2.07 0-1.141-.917-2.07-2.045-2.07" fill="#77BC1F"/>
    </g>
</svg>
